DBRep_DrawableShape

CASCADE Topology V1, (c) Matra-Datavision
Locations 0
Curve2ds 40
1 0 0 1 0 
1 0 0 1 0 
1 10 0 0 -1 
1 0 0 0 1 
1 0 -10 1 0 
1 0 0 1 0 
1 0 0 0 -1 
1 0 0 0 1 
1 0 0 1 0 
1 0 10 1 0 
1 10 0 0 -1 
1 10 0 0 1 
1 0 -10 1 0 
1 0 10 1 0 
1 0 0 0 -1 
1 10 0 0 1 
1 0 0 0 1 
1 0 0 1 0 
1 10 0 0 1 
1 0 0 1 0 
1 0 0 0 1 
1 0 10 1 0 
1 10 0 0 1 
1 0 10 1 0 
1 0 0 1 0 
1 0 10 1 0 
1 10 0 0 -1 
1 10 0 0 1 
1 0 -10 1 0 
1 0 10 1 0 
1 0 0 0 -1 
1 10 0 0 1 
1 0 0 0 1 
1 0 0 1 0 
1 10 0 0 1 
1 0 0 1 0 
1 0 0 0 1 
1 0 10 1 0 
1 10 0 0 1 
1 0 10 1 0 
Curves 20
1 0 0 0 0 0 1 
1 0 0 10 -0 1 0 
1 0 10 0 0 0 1 
1 0 0 0 -0 1 0 
1 10 0 0 0 0 1 
1 10 0 10 -0 1 0 
1 10 10 0 0 0 1 
1 10 0 0 -0 1 0 
1 0 0 0 1 0 -0 
1 0 0 10 1 0 -0 
1 0 10 0 1 0 -0 
1 0 10 10 1 0 -0 
1 20 0 0 0 0 1 
1 20 0 10 -0 1 0 
1 20 10 0 0 0 1 
1 20 0 0 -0 1 0 
1 10 0 0 1 0 -0 
1 10 0 10 1 0 -0 
1 10 10 0 1 0 -0 
1 10 10 10 1 0 -0 
Polygon3D 0
PolygonOnTriangulations 0
Surfaces 11
1 0 0 0 1 0 -0 0 0 1 0 -1 0 
1 0 0 0 -0 1 0 0 0 1 1 0 -0 
1 0 0 10 0 0 1 1 0 -0 -0 1 0 
1 0 10 0 -0 1 0 0 0 1 1 0 -0 
1 0 0 0 0 0 1 1 0 -0 -0 1 0 
1 10 0 0 1 0 -0 0 0 1 0 -1 0 
1 20 0 0 1 0 -0 0 0 1 0 -1 0 
1 10 0 0 -0 1 0 0 0 1 1 0 -0 
1 10 0 10 0 0 1 1 0 -0 -0 1 0 
1 10 10 0 -0 1 0 0 0 1 1 0 -0 
1 10 0 0 0 0 1 1 0 -0 -0 1 0 
Triangulations 0

TShapes 59
Ve
1e-07
0 0 10
0 0

0101101
*
Ve
1e-07
0 0 0
0 0

0101101
*
Ed
 1e-07 1 1 0
1  1 0 0 10
2  1 1 0 0 10
2  2 2 0 0 10
0

0101000
-59 0 +58 0 *
Ve
1e-07
0 10 10
0 0

0101101
*
Ed
 1e-07 1 1 0
1  2 0 0 10
2  3 1 0 0 10
2  4 3 0 0 10
0

0101000
-56 0 +59 0 *
Ve
1e-07
0 10 0
0 0

0101101
*
Ed
 1e-07 1 1 0
1  3 0 0 10
2  5 1 0 0 10
2  6 4 0 0 10
0

0101000
-56 0 +54 0 *
Ed
 1e-07 1 1 0
1  4 0 0 10
2  7 1 0 0 10
2  8 5 0 0 10
0

0101000
-54 0 +58 0 *
Wi

0101100
-57 0 -55 0 +53 0 +52 0 *
Fa
0  1e-07 1 0

0111000
+51 0 *
Ve
1e-07
10 0 0
0 0

0101101
*
Ve
1e-07
10 0 10
0 0

0101101
*
Ed
 1e-07 1 1 0
1  5 0 0 10
2  9 6 0 0 10
2  10 2 0 0 10
0

0101000
+49 0 -48 0 *
Ve
1e-07
10 10 10
0 0

0101101
*
Ed
 1e-07 1 1 0
1  6 0 0 10
2  11 6 0 0 10
2  12 3 0 0 10
0

0101000
+48 0 -46 0 *
Ve
1e-07
10 10 0
0 0

0101101
*
Ed
 1e-07 1 1 0
1  7 0 0 10
2  13 6 0 0 10
2  14 4 0 0 10
0

0101000
+44 0 -46 0 *
Ed
 1e-07 1 1 0
1  8 0 0 10
2  15 6 0 0 10
2  16 5 0 0 10
0

0101000
+49 0 -44 0 *
Wi

0101000
-47 0 -45 0 +43 0 +42 0 *
Fa
0  1e-07 6 0

0101000
+41 0 *
Ed
 1e-07 1 1 0
1  9 0 0 10
2  17 2 0 0 10
2  18 5 0 0 10
0

0101000
+58 0 -49 0 *
Ed
 1e-07 1 1 0
1  10 0 0 10
2  19 2 0 0 10
2  20 3 0 0 10
0

0101000
+59 0 -48 0 *
Wi

0101000
+39 0 +47 0 -38 0 -57 0 *
Fa
0  1e-07 2 0

0101000
-37 0 *
Ed
 1e-07 1 1 0
1  11 0 0 10
2  21 4 0 0 10
2  22 5 0 0 10
0

0101000
+54 0 -44 0 *
Ed
 1e-07 1 1 0
1  12 0 0 10
2  23 4 0 0 10
2  24 3 0 0 10
0

0101000
+56 0 -46 0 *
Wi

0101000
-35 0 -43 0 +34 0 +53 0 *
Fa
0  1e-07 4 0

0101000
+33 0 *
Wi

0101000
+52 0 +35 0 -42 0 -39 0 *
Fa
0  1e-07 5 0

0101000
-31 0 *
Wi

0101000
-55 0 -34 0 +45 0 +38 0 *
Fa
0  1e-07 3 0

0101000
+29 0 *
Sh

0101000
-50 0 +40 0 -36 0 +32 0 -30 0 +28 0 *
So

0100000
+27 0 *
Ve
1e-07
20 0 10
0 0

0101101
*
Ve
1e-07
20 0 0
0 0

0101101
*
Ed
 1e-07 1 1 0
1  13 0 0 10
2  25 7 0 0 10
2  26 8 0 0 10
0

0101000
-25 0 +24 0 *
Ve
1e-07
20 10 10
0 0

0101101
*
Ed
 1e-07 1 1 0
1  14 0 0 10
2  27 7 0 0 10
2  28 9 0 0 10
0

0101000
-22 0 +25 0 *
Ve
1e-07
20 10 0
0 0

0101101
*
Ed
 1e-07 1 1 0
1  15 0 0 10
2  29 7 0 0 10
2  30 10 0 0 10
0

0101000
-22 0 +20 0 *
Ed
 1e-07 1 1 0
1  16 0 0 10
2  31 7 0 0 10
2  32 11 0 0 10
0

0101000
-20 0 +24 0 *
Wi

0101100
-23 0 -21 0 +19 0 +18 0 *
Fa
0  1e-07 7 0

0111000
+17 0 *
Ed
 1e-07 1 1 0
1  17 0 0 10
2  33 8 0 0 10
2  34 11 0 0 10
0

0101000
+49 0 -24 0 *
Ed
 1e-07 1 1 0
1  18 0 0 10
2  35 8 0 0 10
2  36 9 0 0 10
0

0101000
+48 0 -25 0 *
Wi

0101000
+15 0 +23 0 -14 0 -47 0 *
Fa
0  1e-07 8 0

0101000
-13 0 *
Ed
 1e-07 1 1 0
1  19 0 0 10
2  37 10 0 0 10
2  38 11 0 0 10
0

0101000
+44 0 -20 0 *
Ed
 1e-07 1 1 0
1  20 0 0 10
2  39 10 0 0 10
2  40 9 0 0 10
0

0101000
+46 0 -22 0 *
Wi

0101000
-11 0 -19 0 +10 0 +43 0 *
Fa
0  1e-07 10 0

0101000
+9 0 *
Wi

0101000
+42 0 +11 0 -18 0 -15 0 *
Fa
0  1e-07 11 0

0101000
-7 0 *
Wi

0101000
-45 0 -10 0 +21 0 +14 0 *
Fa
0  1e-07 9 0

0101000
+5 0 *
Sh

0101000
-40 0 +16 0 -12 0 +8 0 -6 0 +4 0 *
So

0100000
+3 0 *
Co

1100000
+26 0 +2 0 *

+1 0 