DBRep_DrawableShape

CASCADE Topology V1, (c) Matra-Datavision
Locations 0
Curve2ds 66
1 443.84067517299002 -719.00215096110014 0 1 
1 0 -500 1 0 
2 -56.159324827009982 280.99784903889986 1 0 -0 1 500
1 0 -500 1 0 
8 0 3.1415926535897931
1 0 -500 1 0 
1 -556.15932482700998 280.99784903889986 0 -1 
1 0 -500 1 0 
7 0 0  3 6 4  -556.15932482700998 -219.00215096110014  -456.06553753420997 -225.57113887950027  -250.47230932739001 -326.49293623890026  -15.743709737339998 -660.87875931380017  238.46420521636003 -781.25666058149022  443.84067517299002 -719.00215096110014 
 0 4 26.925824035672999 1 69.352230906865003 1 115.44995319333 4
1 4.650589669589654e-15 -500 1 0 
8 0 115.44995319333
1 4.650589669589654e-15 -500 1 0 
1 0 0 0 -1 
1 115.44995319333 0 0 -1 
8 0 500
1 115.44995319333 0 0 -1 
1 1000 -500 0 1 
1 0 -500 0 1 
8 0 1000
1 0 -500 0 1 
1 0 500 1 0 
1 443.84067517299002 -719.00215096110014 0 1 
1 0 0 0 1 
1 115.44995319333 0 0 -1 
8 0 500
1 115.44995319333 0 0 -1 
1 3.1415926535900001 -500 0 1 
1 0 -500 0 1 
8 0 1000
1 3.1415926535900001 -500 0 1 
1 0 500 1 0 
2 -56.159324827009982 280.99784903889986 1 0 -0 1 500
8 0 3.1415926535897931
1 0 500 1 0 
1 500 0 0 -1 
1 0 0 0 -1 
8 0 500
1 0 0 0 -1 
1 500 0 0 1 
1 0 0 0 -1 
8 0 500
1 0 0 0 -1 
1 0 500 1 0 
1 -556.15932482700998 280.99784903889986 0 -1 
1 0 0 1 0 
1 0 0 1 0 
8 0 115.44995319333
1 0 0 1 0 
8 0 115.44995319333
1 0 0 1 0 
1 4.650589669589654e-15 -500 1 0 
7 0 0  3 6 4  -556.15932482700998 -219.00215096110014  -456.06553753420997 -225.57113887950027  -250.47230932739001 -326.49293623890026  -15.743709737339998 -660.87875931380017  238.46420521636003 -781.25666058149022  443.84067517299002 -719.00215096110014 
 0 4 26.925824035672999 1 69.352230906865003 1 115.44995319333 4
8 0 115.44995319333
1 4.650589669589654e-15 -500 1 0 
1 600 -1450 0 1 
1 0 -600 1 0 
1 600 1450 -1 0 
1 0 -600 1 0 
1 -600 1450 0 -1 
1 0 -600 1 0 
1 -600 -1450 1 0 
1 0 -600 1 0 
1 0 600 0 -1 
1 1200 600 0 -1 
1 2900 -600 0 1 
1 0 -600 0 1 
1 0 600 1 0 
1 600 -1450 0 1 
1 1200 -600 0 1 
1 0 -600 0 1 
1 0 600 1 0 
1 600 1450 -1 0 
1 2900 -600 0 1 
1 0 -600 0 1 
1 0 600 1 0 
1 -600 1450 0 -1 
1 0 600 1 0 
1 -600 -1450 1 0 
Curves 27
1 1000 500 0 1 0 0 
2 2000 500 500 0 -1 0 0 0 -1 1 0 0 500
1 2000 500 1000 -1 0 0 
7 0 0  3 6 4  1500 500 1000  1493.4310120815999 500 899.90621270719998  1392.5092147221999 500 694.31298450038003  1058.1233916473 500 459.58438491033002  937.74549037960992 500 205.37646995662999  1000 500 0 
 0 4 26.925824035672999 1 69.352230906865003 1 115.44995319333 4
1 1000 0 0 0 1 0 
1 2000 500 0 0 -1 0 
1 1000 -500 0 1 0 0 
1 1000 0 0 0 -1 0 
1 2000 500 1000 0 -1 0 
2 2000 -500 500 0 -1 0 0 0 -1 1 0 0 500
1 1500 0 1000 0 1 0 
1 1500 0 1000 0 -1 0 
1 2000 -500 1000 -1 0 0 
7 0 0  3 6 4  1500 0 1000  1493.4310120815999 0 899.90621270719998  1392.5092147221999 0 694.31298450038003  1058.1233916473 0 459.58438491033002  937.74549037960992 0 205.37646995662999  1000 0 0 
 0 4 26.925824035672999 1 69.352230906865003 1 115.44995319333 4
7 0 0  3 6 4  1500 -500 1000  1493.4310120815999 -500 899.90621270719998  1392.5092147221999 -500 694.31298450038003  1058.1233916473 -500 459.58438491033002  937.74549037960992 -500 205.37646995662999  1000 -500 0 
 0 4 26.925824035672999 1 69.352230906865003 1 115.44995319333 4
1 100 600 -100 1 0 0 
1 3000 600 -100 0 0 1 
1 3000 600 1100 -1 0 0 
1 100 600 1100 0 0 -1 
1 100 -600 -100 0 1 0 
1 3000 600 -100 0 -1 0 
1 100 -600 -100 1 0 0 
1 3000 600 1100 0 -1 0 
1 3000 -600 -100 0 0 1 
1 100 600 1100 0 -1 0 
1 3000 -600 1100 -1 0 0 
1 100 -600 1100 0 0 -1 
Polygon3D 0
PolygonOnTriangulations 0
Surfaces 16
1 1719.0021509611001 500 443.84067517299002 -0 -1 -0 0 0 -1 1 -0 0 
1 1000 0 0 0 0 -1 1 0 0 0 -1 0 
2 2000 0 500 0 -1 0 0 0 -1 1 0 0 500
2 2000 0 500 0 -1 0 0 0 -1 1 0 0 500
1 2000 0 1000 0 0 1 -1 0 0 0 -1 0 
6 0 -1 0 
7 0 0  3 6 4  1500 0 1000  1493.4310120815999 0 899.90621270719998  1392.5092147221999 0 694.31298450038003  1058.1233916473 0 459.58438491033002  937.74549037960992 0 205.37646995662999  1000 0 0 
 0 4 26.925824035672999 1 69.352230906865003 1 115.44995319333 4
6 0 -1 0 
7 0 0  3 6 4  1500 0 1000  1493.4310120815999 0 899.90621270719998  1392.5092147221999 0 694.31298450038003  1058.1233916473 0 459.58438491033002  937.74549037960992 0 205.37646995662999  1000 0 0 
 0 4 26.925824035672999 1 69.352230906865003 1 115.44995319333 4
1 1719.0021509611001 -500 443.84067517299002 -0 -1 -0 0 0 -1 1 -0 0 
6 0 1 0 
7 0 0  3 6 4  1500 0 1000  1493.4310120815999 0 899.90621270719998  1392.5092147221999 0 694.31298450038003  1058.1233916473 0 459.58438491033002  937.74549037960992 0 205.37646995662999  1000 0 0 
 0 4 26.925824035672999 1 69.352230906865003 1 115.44995319333 4
6 0 1 0 
7 0 0  3 6 4  1500 0 1000  1493.4310120815999 0 899.90621270719998  1392.5092147221999 0 694.31298450038003  1058.1233916473 0 459.58438491033002  937.74549037960992 0 205.37646995662999  1000 0 0 
 0 4 26.925824035672999 1 69.352230906865003 1 115.44995319333 4
1 1550 600 500 -0 -1 -0 0 0 -1 1 -0 0 
1 100 0 -100 0 0 -1 1 0 0 0 -1 0 
1 3000 0 -100 1 0 0 0 0 1 0 -1 0 
1 3000 0 1100 0 0 1 -1 0 0 0 -1 0 
1 100 0 1100 -1 -0 -0 0 0 -1 0 -1 0 
1 1550 -600 500 -0 -1 -0 0 0 -1 1 -0 0 
Triangulations 0

TShapes 77
Ve
1.00000254211497e-07
1000 500 0
0 0

0101101
*
Ve
1.00000113686838e-07
2000 500 0
0 0

0101101
*
Ed
 1e-07 1 1 0
1  1 0 0 1000
2  1 1 0 0 1000
2  2 2 0 0 1000
0

0101000
+77 0 -76 0 *
Ve
1.00000113686838e-07
2000 500 1000
0 0

0101101
*
Ed
 1.00000113686838e-07 1 1 0
1  2 0 0 3.14159265358979
2  3 1 0 0 3.14159265358979
2  4 3 0 0 3.14159265358979
2  5 4 0 0 3.14159265358979
0

0101000
+76 0 -74 0 *
Ve
1.00000254211497e-07
1500 500 1000
0 0

0101101
*
Ed
 1e-07 1 1 0
1  3 0 0 500
2  6 1 0 0 500
2  7 5 0 0 500
0

0101000
+74 0 -72 0 *
Ed
 1.00000254211497e-07 1 1 0
1  4 0 0 115.44995319333
2  8 1 0 0 115.44995319333
2  9 6 0 0 115.44995319333
2  10 7 0 0 115.44995319333
0

0101000
+72 0 -77 0 *
Wi

0101100
+75 0 +73 0 +71 0 +70 0 *
Fa
0  1e-07 1 0

0111000
+69 0 *
Ve
1.00000254211497e-07
1000 0 0
0 0

0101101
*
Ed
 1e-07 1 1 0
1  5 0 0 500
2  11 2 0 0 500
2  12 6 0 0 500
2  13 7 0 0 500
0

0101000
+67 0 -77 0 *
Ve
1.00000113686838e-07
2000 -500 0
0 0

0101101
*
Ed
 1e-07 1 1 0
1  6 0 0 1000
2  14 2 0 0 1000
2  15 3 0 0 1000
4 G1 2 0 3 0
2  16 4 0 0 1000
0

0101000
+76 0 -65 0 *
Ve
1.00000254211497e-07
1000 -500 0
0 0

0101101
*
Ed
 1e-07 1 1 0
1  7 0 0 1000
2  17 2 0 0 1000
2  18 8 0 0 1000
0

0101000
+63 0 -65 0 *
Ed
 1e-07 1 1 0
1  8 0 0 500
2  19 2 0 0 500
2  20 9 0 0 500
2  21 10 0 0 500
0

0101000
+67 0 -63 0 *
Wi

0101100
+66 0 +75 0 +64 0 -62 0 -61 0 *
Fa
0  1e-07 2 0

0111000
+60 0 *
Ve
1.00000113686838e-07
2000 -500 1000
0 0

0101101
*
Ed
 1e-07 1 1 0
1  9 0 0 1000
2  22 3 0 0 1000
2  23 5 0 0 1000
4 G1 3 0 5 0
2  24 4 0 0 1000
0

0101000
+74 0 -58 0 *
Ed
 1.00000113686838e-07 1 1 0
1  10 0 0 3.14159265358979
2  25 3 0 0 3.14159265358979
2  26 8 0 0 3.14159265358979
2  27 4 0 0 3.14159265358979
0

0101000
+65 0 -58 0 *
Wi

0101100
-64 0 +73 0 +57 0 -56 0 *
Fa
0  1e-07 3 0

0111000
+55 0 *
Ve
1.00000254211497e-07
1500 0 1000
0 0

0101101
*
Ed
 1e-07 1 1 0
1  11 0 0 500
2  28 5 0 0 500
2  29 6 0 0 500
2  30 7 0 0 500
0

0101000
+53 0 -72 0 *
Ve
1.00000254211497e-07
1500 -500 1000
0 0

0101101
*
Ed
 1e-07 1 1 0
1  12 0 0 500
2  31 5 0 0 500
2  32 9 0 0 500
2  33 10 0 0 500
0

0101000
+53 0 -51 0 *
Ed
 1e-07 1 1 0
1  13 0 0 500
2  34 5 0 0 500
2  35 8 0 0 500
0

0101000
+58 0 -51 0 *
Wi

0101100
-57 0 +71 0 -52 0 +50 0 -49 0 *
Fa
0  1e-07 5 0

0111000
+48 0 *
Ed
 1.00000254211497e-07 1 1 0
1  14 0 0 115.44995319333
2  36 6 0 0 115.44995319333
2  37 9 0 0 115.44995319333
4 G2 6 0 9 0
2  38 7 0 0 115.44995319333
2  39 10 0 0 115.44995319333
0

0101000
+53 0 -67 0 *
Wi

0101100
-66 0 -46 0 +52 0 +70 0 *
Fa
0  1e-07 6 0

0111000
+45 0 *
Ed
 1.00000254211497e-07 1 1 0
1  15 0 0 115.44995319333
2  40 9 0 0 115.44995319333
2  41 8 0 0 115.44995319333
2  42 10 0 0 115.44995319333
0

0101000
+51 0 -63 0 *
Wi

0101100
-61 0 -46 0 +50 0 +43 0 *
Fa
0  1e-07 9 0

0111000
+42 0 *
Wi

0101100
+62 0 +56 0 +49 0 +43 0 *
Fa
0  1e-07 8 0

0111000
+40 0 *
Sh

0101100
-68 0 +59 0 +54 0 +47 0 +44 0 -41 0 +39 0 *
So

0100000
+38 0 *
Ve
1e-07
100 600 -100
0 0

0101101
*
Ve
1e-07
3000 600 -100
0 0

0101101
*
Ed
 1e-07 1 1 0
1  16 0 0 2900
2  43 11 0 0 2900
2  44 12 0 0 2900
0

0101000
+36 0 -35 0 *
Ve
1e-07
3000 600 1100
0 0

0101101
*
Ed
 1e-07 1 1 0
1  17 0 0 1200
2  45 11 0 0 1200
2  46 13 0 0 1200
0

0101000
+35 0 -33 0 *
Ve
1e-07
100 600 1100
0 0

0101101
*
Ed
 1e-07 1 1 0
1  18 0 0 2900
2  47 11 0 0 2900
2  48 14 0 0 2900
0

0101000
+33 0 -31 0 *
Ed
 1e-07 1 1 0
1  19 0 0 1200
2  49 11 0 0 1200
2  50 15 0 0 1200
0

0101000
+31 0 -36 0 *
Wi

0101100
+34 0 +32 0 +30 0 +29 0 *
Fa
0  1e-07 11 0

0111000
+28 0 *
Ve
1e-07
100 -600 -100
0 0

0101101
*
Ed
 1e-07 1 1 0
1  20 0 0 1200
2  51 12 0 0 1200
2  52 15 0 0 1200
0

0101000
+26 0 -36 0 *
Ve
1e-07
3000 -600 -100
0 0

0101101
*
Ed
 1e-07 1 1 0
1  21 0 0 1200
2  53 12 0 0 1200
2  54 13 0 0 1200
0

0101000
+35 0 -24 0 *
Ed
 1e-07 1 1 0
1  22 0 0 2900
2  55 12 0 0 2900
2  56 16 0 0 2900
0

0101000
+26 0 -24 0 *
Wi

0101100
+25 0 +34 0 +23 0 -22 0 *
Fa
0  1e-07 12 0

0111000
+21 0 *
Ve
1e-07
3000 -600 1100
0 0

0101101
*
Ed
 1e-07 1 1 0
1  23 0 0 1200
2  57 13 0 0 1200
2  58 14 0 0 1200
0

0101000
+33 0 -19 0 *
Ed
 1e-07 1 1 0
1  24 0 0 1200
2  59 13 0 0 1200
2  60 16 0 0 1200
0

0101000
+24 0 -19 0 *
Wi

0101100
-23 0 +32 0 +18 0 -17 0 *
Fa
0  1e-07 13 0

0111000
+16 0 *
Ve
1e-07
100 -600 1100
0 0

0101101
*
Ed
 1e-07 1 1 0
1  25 0 0 1200
2  61 14 0 0 1200
2  62 15 0 0 1200
0

0101000
+31 0 -14 0 *
Ed
 1e-07 1 1 0
1  26 0 0 2900
2  63 14 0 0 2900
2  64 16 0 0 2900
0

0101000
+19 0 -14 0 *
Wi

0101100
-18 0 +30 0 +13 0 -12 0 *
Fa
0  1e-07 14 0

0111000
+11 0 *
Ed
 1e-07 1 1 0
1  27 0 0 1200
2  65 15 0 0 1200
2  66 16 0 0 1200
0

0101000
+14 0 -26 0 *
Wi

0101100
-13 0 +29 0 -25 0 -9 0 *
Fa
0  1e-07 15 0

0111000
+8 0 *
Wi

0101100
+22 0 +17 0 +12 0 +9 0 *
Fa
0  1e-07 16 0

0111000
+6 0 *
Sh

0101100
-27 0 +20 0 +15 0 +10 0 +7 0 +5 0 *
Sh

0101100
-68 0 +59 0 +54 0 +47 0 +44 0 +39 0 -41 0 *
So

0100000
+4 0 -3 0 *
Co

1100000
+37 0 +2 0 *

+1 0 