DBRep_DrawableShape

CASCADE Topology V1, (c) Matra-Datavision
Locations 0
Curve2ds 76
7 0 0  3 6 4  -556.15932482700998 -219.00215096110014  -456.06553753420997 -225.57113887950027  -250.47230932739001 -326.49293623890026  -15.743709737339998 -660.87875931380017  238.46420521636003 -781.25666058149022  443.84067517299002 -719.00215096110014 
 0 4 26.925824035672999 1 69.352230906865003 1 115.44995319333 4
1 4.650589669589654e-15 -500 1 0 
1 881.75972720876496 -334.60257746290171 -0.98480775301218992 -0.1736481776670335 
1 343.84067517299002 -810.26068782990023 0 -1 
2 -56.159324827009982 280.99784903889986 1 0 -0 1 500
1 0 -500 1 0 
1 443.84067517299002 -719.00215096110014 0 1 
1 0 -500 1 0 
8 0 107.50122377483443
1 -3.3779547940350593e-15 -500 1 0 
1 -556.15932482700998 280.99784903889986 0 -1 
1 0 -500 1 0 
8 0.64350110879328437 3.1415926535897931
1 0 -500 1 0 
1 0 0 0 -1 
1 115.44995319333 0 0 -1 
1 1000 -500 0 1 
1 0 -500 0 1 
1 0 500 1 0 
1 443.84067517299002 -719.00215096110014 0 1 
1 0 0 0 1 
1 115.44995319333 0 0 -1 
1 0 500 1 0 
2 -56.159324827009982 280.99784903889986 1 0 -0 1 500
1 3.1415926535900001 -500 0 1 
1 0 -500 0 1 
3 100 480.85322377151243 -0 -1 1 -0 507.71330594287014 500
7 0 0  10 11 2  0 -352.65396141689996  0.31415926535900002 -380.35133877809994  0.62831853077699995 -408.04871482480002  0.94247779581900004 -431.9494107854  1.256637061568 -448.25661135830001  1.5707963267339999 -454.06633381730001  1.8849555920459999 -448.25661151669999  2.1991148575619999 -431.9494107877  2.5132741229320001 -408.04871481959998  2.8274333882309999 -380.35133877809994  3.1415926535900001 -352.65396141689996 
 1.570796326795 11 4.7123889803849996 11
7 0 0  10 11 2  0.64350110879327582 -405.55205562950084  0.89331026327292273 -423.17129321460374  1.1431194177876023 -437.12265880266204  1.3929285718768369 -445.87903508171439  1.6427377275249455 -448.32206230610609  1.8925468805246055 -443.96895239502192  2.1423560363473371 -433.1145651564002  2.3921651900745928 -416.81721456348896  2.6419743447004294 -396.70205490849912  2.8917834991101481 -374.67800839830863  3.1415926535897931 -352.65396141693003 
 2.2142974355881835 11 4.7123889803846897 11
1 2165.057831928038 399.3908086341637 -0.1736481776670335 0.98480775301218992 
7 0 0  1 2 2  0.64350110879300004 -500  0.64350110879300004 -405.55205562947003 
 -500 2 -405.55205562947003 2
1 0.64350110879328437 0 0 1 
8 0 147.34603858306997
1 3.1415926535900001 -500 0 1 
1 -400 209.80775301221587 -0 -1 
1 266.92768102260015 -305.58740935471002 0.98480775301218992 0.17364817766703353 
1 500 0 0 -1 
1 0 0 0 -1 
8 264.49047106270001 500
1 0 0 0 -1 
1 0 500 1 0 
1 -556.15932482700998 280.99784903889986 0 -1 
1 500 0 0 1 
1 0 0 0 -1 
7 0 0  4 65 22  950.4475895871883 -322.49105814009476  949.77470288796235 -318.67492803611441  949.10181618873639 -314.85879793213411  948.42892948951044 -311.04266782815381  947.08315609105853 -303.41040762019315  946.41026939183257 -299.59427751621286  945.73738269260662 -295.77814741223256  944.3916092941547 -288.1458872042719  943.71872259492875 -284.3297571002916  943.04583589570279 -280.51362699631125  941.70006249725088 -272.88136678835065  941.02717579802493 -269.06523668437035  940.3542890987992 -265.24910658038999  939.00851570034729 -257.61684637242939  938.33562900112133 -253.80071626844912  937.66274230189538 -249.98458616446877  936.31696890344347 -242.35232595650817  935.64408220421933 -238.53619585253765  934.97119550499156 -234.72006574854751  933.62542210654146 -227.08780554059669  932.95253540731551 -223.27167543661639  932.27964870808955 -219.45554533263604  930.93387530963764 -211.82328512467544  930.26098861041169 -208.00715502069514  929.58810191118573 -204.19102491671478  928.24232851273382 -196.55876470875418  927.56944181350786 -192.74263460477388  926.89655511428191 -188.92650450079353  925.55078171583 -181.29424429283293  924.87789501660427 -177.47811418885263  924.20500831737832 -173.66198408487227  922.8592349189264 -166.02972387691167  922.18634821970045 -162.21359377293138  921.51346152047449 -158.39746366895102  920.16768812202258 -150.76520346099042  919.49480142279663 -146.94907335701012  918.82191472357067 -143.13294325302977  917.47614132511876 -135.50068304506917  916.80325462589292 -131.68455294108881  916.13036792666696 -127.8684228371085  914.78459452821505 -120.23616262914784  914.1117078289891 -116.42003252516754  913.43882112976314 -112.60390242118724  912.09304773131123 -104.97164221322659  911.42016103208539 -101.15551210924629  910.74727433285943 -97.339382005265989  909.40150093440752 -89.707121797305334  908.72861423518157 -85.890991693325006  908.05572753595561 -82.074861589344678  906.7099541375037 -74.442601381384051  906.03706743827775 -70.626471277403724  905.3641807390519 -66.810341173423396  904.01840734059999 -59.178080965462769  903.34552064137404 -55.36195086148247  902.67263394214808 -51.545820757502142  901.32686054369617 -43.913560549541515  900.65397384447022 -40.097430445561187  899.98108714524437 -36.281300341580888  898.63531374679246 -28.649040133620264  897.96242704756651 -24.832910029639937  897.28954034834055 -21.016779925659637  895.85841898678984 -12.900487366235172  895.10018432446498 -8.6003249107910342  894.34194966214011 -4.3001624553468965  893.58371499981706 8.7350571220667916e-11 
 0 5 0.047333158643079999 3 0.094666317286159998 3 0.141999475929 3 0.189332634572 3 0.236665793215 3 0.283998951858 3 0.33133211050200001 3 0.37866526914499998 3 0.42599842778800001 3 0.47333158643099998 3 0.52066474507399996 3 0.56799790371699999 3 0.61533106236000001 3 0.66266422100300004 3 0.70999737964599996 3 0.75733053828899999 3 0.80466369693200002 3 0.85199685557500004 3 0.89933001421799996 3 0.94666317286099999 3 1 5
7 0 0  1 2 2  107.50122377483443 -500  107.50122377483444 -172.53400146926001 
 1.2215008378871375e-08 2 1 2
7 0 0  1 2 2  107.50122377483443 -500.00000000001387  107.50122377483443 -172.53400146850285 
 1.2215008378871375e-08 2 1 2
7 0 0  4 95 32  500 -556.41628500016202  490.30212923695001 -557.59650079280357  480.57976941574998 -558.51749228434608  470.86246549740997 -559.15985379384426  451.88799364425 -559.85463625600232  442.62718981334001 -559.92904570464464  433.44013487637 -559.72922320058865  415.14014579127002 -558.7829698025115  406.03010130705002 -558.02813318828396  397.06393987348997 -557.00040993953405  379.41100543402001 -554.42503766008929  370.72610103338002 -552.87399235205999  362.23240336545996 -551.08085676163728  345.44704185743001 -547.00816314131077  337.16495388241003 -544.71790619206331  329.09881311422004 -542.221452644902  313.11234723202 -536.76802637222636  305.20740297860999 -533.79781565365522  297.52379168296 -530.65664204861253  282.26551143136999 -523.93785556652165  274.70872001032001 -520.34756472367644  267.36513082092006 -516.61773822955752  252.76409546102002 -508.74784784699864  245.52419521779001 -504.597088778444  238.48120269239996 -500.33345129502709  224.4671487439 -491.4260422324262  217.51157335362001 -486.77390717826529  210.73226396898002 -482.0309989692098  197.23578439462995 -472.1993709057806  190.53127924593002 -467.10444810267131  183.98043445219002 -461.93697698789424  170.93283961943001 -451.29436731423789  164.44580877782005 -445.81482950394366  158.08922846469 -440.27784342841551  145.42234309835004 -428.93752646864414  139.11903982350998 -423.13121878604079  132.92307963487997 -417.28013042673911  120.56907105957998 -405.3554486078981  114.41570404729998 -399.27995804133798  108.34698755513 -393.17051037401757  96.238242711940018 -380.77487463266243  90.201036713479994 -374.487580580437  84.22628611348 -368.17579684956445  72.295329208850035 -355.42267551854002  66.340560138219985 -348.98078461658952  60.426500688399983 -342.52292099818465  48.605939095750045 -329.52582566089382  42.699954247749929 -322.98639391058487  36.813262595630022 -316.43890122800008  25.035750652049956 -303.31137267945064  19.144979576920036 -296.73131699246073  13.252257655920062 -290.15081284129201  1.4504707871100209 -277.00640790732768  -4.4585707262299366 -270.44250827755059  -10.390806844680014 -263.8857591724061  -22.284193198270032 -250.83803815813189  -28.244905923770034 -244.34693091527106  -34.250227902929964 -237.87084376365146  -46.302559031179953 -225.03335797961654  -52.348272144429984 -218.67152000338842  -58.460334405659978 -212.33314251498223  -70.739001092970057 -199.81942134462292  -76.902998331210028 -193.64314484487704  -83.155526215600048 -187.4996750390203  -95.727998629290028 -175.42321236280804  -102.04356850535999 -169.48857013377938  -108.47033723847005 -163.59737579848388  -121.40421463950997 -152.0716165214244  -127.90474118771999 -146.43441920294595  -134.53954037135998 -140.85306889788512  -147.90262545659994 -129.99139847502079  -154.62174575956988 -124.7071498078235  -161.49831948259009 -119.49345760790402  -175.35872737974 -109.40920204348163  -182.33059424060002 -104.53306834438081  -189.48253864625997 -99.745154242382796  -203.90884631920994 -90.55160684066459  -211.16854294984 -86.138437778573689  -218.62912785220999 -81.834801927377157  -233.69054822015005 -73.645307186468472  -241.27468621994001 -69.749781372454208  -249.07654149867994 -65.989375558047641  -264.84304555831 -58.917514462521467  -272.79048775448007 -55.594530019525564  -280.96506608119989 -52.436766289305979  -297.50725624793006 -46.596673869940787  -305.85966469146001 -43.902113605074646  -314.43641815480999 -41.40665544800504  -331.82483439143994 -36.913400083122951  -340.62635691233004 -34.905239837378303  -349.63181413464997 -33.131310545231145  -368.81852267368004 -29.954854447143589  -379.03386197271993 -28.598277491374347  -389.44200741860993 -27.563674752021825  -400 -26.860082171359636 
 0 5 0.02698566454253 3 0.052927977031709997 3 0.079268564569609998 3 0.10577207900299999 3 0.13290105070200001 3 0.16098601795199999 3 0.19023269420700001 3 0.22074144504500001 3 0.25252976399999999 3 0.28555250052199999 3 0.31971812357200002 3 0.35490113267000001 3 0.39095135330000003 3 0.42770091664900001 3 0.46496959914800001 3 0.50256904606300001 3 0.540306279083 3 0.57798680152799997 3 0.61541756425100003 3 0.65241003637399997 3 0.68878363538300003 3 0.72436981086999996 3 0.75901714699099998 3 0.79259794974800002 3 0.82501690370000003 3 0.856222469983 3 0.88622162162100004 3 0.915097984857 3 0.94303200903999995 3 0.97031906855899996 3 1 5
7 0 0  3 157 155  107.50122377483444 -172.53400146926001  107.2382111391876 -172.46823677853737  106.70851106942291 -172.3471767593995  105.90366533805771 -172.19790029732951  105.08921224377646 -172.08189710937302  104.26598181750683 -171.99993710583928  103.4348965054548 -171.95266408376739  102.59697525238855 -171.9405241848703  101.75331204577506 -171.96377205951833  100.90504633156054 -172.02245092331577  100.05336544311869 -172.11640276548815  99.199453505389215 -172.24524827023336  98.344489506079512 -172.40841700935462  97.489609469911812 -172.60516085736035  96.635912411490835 -172.83455476630994  95.784398520929585 -173.0955397793395  94.935994244732683 -173.3869464017524  94.091531310920118 -173.70753293264414  93.251749036960916 -174.05597332817084  92.417270087051392 -174.43092263005167  91.58862130389231 -174.83102017515424  90.766242581898695 -175.25492315957649  89.950479867971467 -175.70129386805149  89.14159803162481 -176.16883757085688  88.339781465729416 -176.65630495886901  87.545160289774245 -177.1625009842848  86.75780026193739 -177.68628370756744  85.977721507082421 -178.22656677285249  85.204896893056713 -178.78232983322434  84.439267975517197 -179.35261004298886  83.680747547133365 -179.9365033428904  82.929218912863661 -180.53316333271164  82.18455238464594 -181.14179602947709  81.446597042852872 -181.76166324559287  80.715194224972137 -182.39207200966959  79.990173303180967 -183.03237847363235  79.271357637484485 -183.68198123136344  78.558567662666107 -184.34031910699784  77.851618959574921 -185.00686957931984  77.150327523769178 -185.68114248840527  76.454507284427208 -186.36268348306095  75.763974524310399 -187.05106630508922  75.078547154708858 -187.74589328656285  74.398044442927898 -188.44679236792913  73.722289001294683 -189.15341364077759  73.051105686927343 -189.86543134200622  72.384323283689227 -190.58253932605757  71.72177457982805 -191.30444961083688  71.063295099764048 -192.03089227553889  70.408724453633084 -192.76161189407264  69.757905778863247 -193.49636861457063  69.110685818570417 -194.23493740792307  68.466915883788388 -194.97710358136979  67.82645006628664 -195.72266597438383  67.189146206164537 -196.47143266704268  66.554865557411347 -197.22322179079043  65.923472562263825 -197.97786205400971  65.29483540509635 -198.73518900436198  64.668825110475566 -199.49504718612101  64.045315589404979 -200.25728772131649  63.424183611799435 -201.02176818244172  62.805308664312463 -201.78835271824909  62.188572884544641 -202.55691167786134  61.573861087375825 -203.32731965738222  60.961060181737416 -204.09945703879697  60.350059275755228 -204.87320794707267  59.740749546451077 -205.64846065347629  59.133024144403706 -206.42510781232201  58.526778159437001 -207.20304505089794  57.921908393953537 -207.98217138628496  57.318313130805244 -208.76238870510588  56.715892100709759 -209.54360124250377  56.114546396006212 -210.32571565403251  55.514178405098818 -211.10864124911487  54.914691699873877 -211.89228857857788  54.315990854047627 -212.67657043689843  53.717981279190866 -213.46140076427776  53.120569176532534 -214.24669469593616  52.523661467011415 -215.03236853212053  51.927165738074358 -215.81833980878361  51.33099008253663 -216.60452622019221  50.73504297292002 -217.39084651986181  50.139233109910926 -218.17721940988125  49.543469381259783 -218.96356373488845  48.947660799571189 -219.74979847988214  48.351716442518352 -220.53584258499711  47.75554528004475 -221.3216142873402  47.159056054513933 -222.10703169448001  46.562157155481984 -222.89201179266723  45.964756575766202 -223.67647064320769  45.366761852504439 -224.46032349843162  44.768079998765074 -225.24348414143705  44.16861731600703 -226.02586491245307  43.568279255625903 -226.80737659863161  42.966970337880205 -227.58792772543481  42.364594093464163 -228.36742466285222  41.76105299511147 -229.14577190891228  41.156248419686648 -229.92287069729903  40.550080350244855 -230.69862005260265  39.942447300384778 -231.4729155174625  39.333246249515838 -232.24564895893653  38.722372565646978 -233.01670857220088  38.109719943323675 -233.78597905937883  37.495180400043878 -234.55333976926079  36.878643765505686 -235.31866643319572  36.2599978339328 -236.08182875227624  35.63912825091478 -236.84269069591431  35.015918371903332 -237.6011107426103  34.390249451159427 -238.35694061829611  33.762000233924681 -239.1100249689442  33.13104665676066 -239.86020141081471  32.497262146170421 -240.60729835557146  31.860517439288348 -241.35113543184028  31.220680418102248 -242.09152394285576  30.5776168425549 -242.82826298724262  29.931188736616633 -243.56114284962482  29.281255563119291 -244.28994019465134  28.627674062338315 -245.01441832140813  27.970297769484137 -245.73432818296598  27.308978632513789 -246.44940391226783  26.643565006980403 -247.15936516421732  25.973902832185182 -247.86391342911296  25.299836393820396 -248.56272988934893  24.621207518201203 -249.25547684525571  23.937857570653062 -249.94179415504118  23.24962661101938 -250.6212978633541  22.556353424971828 -251.29357974344421  21.857878730243836 -251.95820156315403  21.154043398614007 -252.61469761114702  20.444692150787233 -253.26257027111359  19.729673000990172 -253.90128758630075  19.008838241228897 -254.53028306992618  18.282050191374555 -255.14894913070702  17.549177465040962 -255.7566404504077  16.810104610488075 -256.35266668577162  16.064727246609063 -256.93629308255333  15.312961665365806 -257.5067382357006  14.554748231623025 -258.06317136826823  13.790048343847561 -258.60471422159691  13.018860911979855 -259.13043467858137  12.241215540147788 -259.63935067614068  11.457191008217279 -260.13043499103026  10.666908905047821 -260.60261221470273  9.8705441414379873 -261.05476658755344  9.0683350780739378 -261.48573627033102  8.2605877948806974 -261.8943404914732  7.4476811060551285 -262.27938172995613  6.6300591932957289 -262.63964947039034  5.8082563346267557 -262.97393932160082  4.9828884312837083 -263.2810717921692  4.1546498449951148 -263.55992618717551  3.3243058237616214 -263.80942904347592  2.4926913978792049 -264.02859889569129  1.6607239892350867 -264.21655241274641  0.8293507338725723 -264.37253863777966  0.27616390186421741 -264.45484310692376  0 -264.49047106270001 
 0 4 0.0064935064935064939 1 0.012987012987012988 1 0.01948051948051948 1 0.025974025974025976 1 0.032467532467532471 1 0.03896103896103896 1 0.045454545454545456 1 0.051948051948051951 1 0.058441558441558447 1 0.064935064935064943 1 0.071428571428571438 1 0.07792207792207792 1 0.084415584415584416 1 0.090909090909090912 1 0.097402597402597407 1 0.1038961038961039 1 0.1103896103896104 1 0.11688311688311689 1 0.12337662337662339 1 0.12987012987012989 1 0.13636363636363638 1 0.14285714285714288 1 0.14935064935064937 1 0.15584415584415584 1 0.16233766233766234 1 0.16883116883116883 1 0.17532467532467533 1 0.18181818181818182 1 0.18831168831168832 1 0.19480519480519481 1 0.20129870129870131 1 0.20779220779220781 1 0.2142857142857143 1 0.2207792207792208 1 0.22727272727272729 1 0.23376623376623379 1 0.24025974025974028 1 0.24675324675324678 1 0.25324675324675328 1 0.25974025974025977 1 0.26623376623376627 1 0.27272727272727276 1 0.27922077922077926 1 0.28571428571428575 1 0.29220779220779225 1 0.29870129870129875 1 0.30519480519480524 1 0.31168831168831168 1 0.31818181818181818 1 0.32467532467532467 1 0.33116883116883117 1 0.33766233766233766 1 0.34415584415584416 1 0.35064935064935066 1 0.35714285714285715 1 0.36363636363636365 1 0.37012987012987014 1 0.37662337662337664 1 0.38311688311688313 1 0.38961038961038963 1 0.39610389610389612 1 0.40259740259740262 1 0.40909090909090912 1 0.41558441558441561 1 0.42207792207792211 1 0.4285714285714286 1 0.4350649350649351 1 0.44155844155844159 1 0.44805194805194809 1 0.45454545454545459 1 0.46103896103896108 1 0.46753246753246758 1 0.47402597402597407 1 0.48051948051948057 1 0.48701298701298706 1 0.49350649350649356 1 0.5 1 0.50649350649350655 1 0.51298701298701299 1 0.51948051948051954 1 0.52597402597402598 1 0.53246753246753253 1 0.53896103896103897 1 0.54545454545454553 1 0.55194805194805197 1 0.55844155844155852 1 0.56493506493506496 1 0.57142857142857151 1 0.57792207792207795 1 0.5844155844155845 1 0.59090909090909094 1 0.59740259740259749 1 0.60389610389610393 1 0.61038961038961048 1 0.61688311688311692 1 0.62337662337662336 1 0.62987012987012991 1 0.63636363636363635 1 0.6428571428571429 1 0.64935064935064934 1 0.6558441558441559 1 0.66233766233766234 1 0.66883116883116889 1 0.67532467532467533 1 0.68181818181818188 1 0.68831168831168832 1 0.69480519480519487 1 0.70129870129870131 1 0.70779220779220786 1 0.7142857142857143 1 0.72077922077922085 1 0.72727272727272729 1 0.73376623376623384 1 0.74025974025974028 1 0.74675324675324684 1 0.75324675324675328 1 0.75974025974025983 1 0.76623376623376627 1 0.77272727272727282 1 0.77922077922077926 1 0.78571428571428581 1 0.79220779220779225 1 0.7987012987012988 1 0.80519480519480524 1 0.81168831168831179 1 0.81818181818181823 1 0.82467532467532478 1 0.83116883116883122 1 0.83766233766233766 1 0.84415584415584421 1 0.85064935064935066 1 0.85714285714285721 1 0.86363636363636365 1 0.8701298701298702 1 0.87662337662337664 1 0.88311688311688319 1 0.88961038961038963 1 0.89610389610389618 1 0.90259740259740262 1 0.90909090909090917 1 0.91558441558441561 1 0.92207792207792216 1 0.9285714285714286 1 0.93506493506493515 1 0.94155844155844159 1 0.94805194805194815 1 0.95454545454545459 1 0.96103896103896114 1 0.96753246753246758 1 0.97402597402597413 1 0.98051948051948057 1 0.98701298701298712 1 0.99350649350649356 1 1 4
7 0 0  13 326 26  107.50122377483444 -172.53400146926001  107.24897925334702 -172.47094229338956  106.995524402838 -172.41134571949033  106.74088333910844 -172.35525887772843  106.48508172012868 -172.30272648832917  106.2281468044297 -172.25379086902007  105.97010750738184 -172.20849192084688  105.71099446144189 -172.16686715058594  105.45084007003572 -172.12895164095301  105.1896785700757 -172.09477808403975  104.92754608466841 -172.0643767496955  104.6644806850896 -172.0377755105674  104.40052244552051 -172.01499982565954  104.13571350241924 -171.99607274913228  103.8811428945772 -171.97787745387811  103.62578350547099 -171.96323705423896  103.36967339659951 -171.95217121833309  103.11285132663262 -171.94469654504667  102.85535676608291 -171.94082656988189  102.59722990505297 -171.94057175390287  102.33851167291868 -171.94393950096733  102.07924374063055 -171.95093413521221  101.81946854456658 -171.96155692586902  101.55922928762402 -171.9758060641864  101.29856996069663 -171.99367668145496  101.0375353487965 -172.01516083729626  100.77617104678033 -172.04024752588532  100.51079419472129 -172.06571935370283  100.24507441724717 -172.09490599384446  99.979059004795374 -172.12779477152793  99.71279479398892 -172.16437017408029  99.446328143758251 -172.20461385905418  99.179704899554054 -172.24850463867645  98.912970377304191 -172.29601850411152  98.646169320254771 -172.34712859422763  98.379345886944492 -172.40180522899769  98.112543609140076 -172.46001587973234  97.845805374182788 -172.52172519118307  97.579173390642623 -172.58689496793451  97.312689163521895 -172.6554841812642  97.044556668208941 -172.72449764587353  96.77657199546168 -172.79697591269093  96.508776117055831 -172.87287697005752  96.241208679487286 -172.95215750937021  95.973907971158837 -173.03477293400027  95.706910875547649 -173.12067734383709  95.440252846256527 -173.20982355712096  95.173967853511115 -173.3021630848304  94.908088362155155 -173.39764615585577  94.642645280142318 -173.49622169621949  94.377667930487235 -173.59783734345979  94.113184007442641 -173.70243943832213  93.849219541573945 -173.80997302872316  93.579025829369172 -173.92004430776342  93.309376583898754 -174.03318999308064  93.040298699396089 -174.14935188265164  92.77181756816212 -174.26847196381595  92.503957072826182 -174.39049244233757  92.236739530047458 -174.5153556882205  91.970185713933589 -174.64300431829975  91.704314770244508 -174.7733810915756  91.439144256880454 -174.90642902050504  91.174690060414022 -175.04209127133541  90.910966416033858 -175.18031123919334  90.647985854424377 -175.32103250081872  90.385759191943905 -175.46419883904608  90.114291992995362 -175.6124102037395  89.843634212677671 -175.76324347182469  89.573797510254664 -175.91663714161461  89.304792372670491 -176.07253080759247  89.036628108560919 -176.23086515655999  88.769312833242608 -176.3915819755091  88.502853467611729 -176.55462413848792  88.237255719133543 -176.71993562466983  87.972524082422197 -176.88746149776648  87.708661821417124 -177.05714792547644  87.445670966466125 -177.22894216427545  87.183552301038375 -177.40279256920854  86.922305354554595 -177.57864858876519  86.650252200147946 -177.76177873192  86.379146035808162 -177.94708383613153  86.108986436088728 -178.13450733767459  85.839772271775942 -178.3239940690126  85.571501713741952 -178.51549027107745  85.304172226091424 -178.70894357086979  85.037780576177923 -178.90430301497727  84.772322822311423 -179.10151902764738  84.507794326578789 -179.30054345507631  84.244189743431562 -179.50132952574927  83.981503028332327 -179.70383188049124  83.71972743223516 -179.90800655335872  83.458855504497421 -180.11381098166243  83.186726226360108 -180.32849643759357  82.915581617181715 -180.54495450959837  82.64541341578844 -180.76313704805102  82.376213064619307 -180.98299723869727  82.107971723945781 -181.20448963243578  81.840680245710189 -181.42757009013775  81.574329212864058 -181.65219586629206  81.308908890197628 -181.87832550351899  81.04440927590116 -182.10591894426062  80.780820056025831 -182.33493743110444  80.518130638333119 -182.56534358169003  80.256330131253989 -182.79710134162536  79.995407354666767 -183.03017600886426  79.72354121689024 -183.27302606518916  79.452628859322061 -183.51730474411985  79.182657827636859 -183.76297275106964  78.913615637494175 -184.00999193217999  78.645489773674782 -184.25832526371761  78.378267691819275 -184.50793687219559  78.111936815604579 -184.75879200304041  77.846484540493378 -185.01085706127699  77.581898229628877 -185.26409956712286  77.318165217564754 -185.51848819684142  77.055272807437277 -185.77399275111657  76.793208272758235 -186.03058417550406  76.531958856471832 -186.28823454955631  76.260564497678573 -186.55589011286528  75.990050276156992 -186.82468748260612  75.720402023590026 -187.09459525033375  75.45160568123201 -187.36558291176132  75.183647295485329 -187.63762085010435  74.916513025945193 -187.91068036631816  74.650189133514701 -188.18473363446691  74.384661994943897 -188.45975375630479  74.119918087922159 -188.73571470533196  73.85594400398108 -189.0125913751491  73.592726439047922 -189.29035954417347  73.330252199270291 -189.56899589726859  73.068508198034294 -189.848478014758  72.797705479620618 -190.1376327511615  72.527684634519673 -190.42769201578739  72.258431246516793 -190.71863086877528  71.989931066904987 -191.01042505845552  71.722170005062594 -191.30305100166009  71.455134146040749 -191.59648582001691  71.188809723672108 -191.89070728520022  70.923183154793833 -192.18569388765204  70.658241002704912 -192.48142476417581  70.393970009995584 -192.77787976220006  70.130357073774618 -193.07503939178301  69.867389261263199 -193.37288485557917  69.605053801725973 -193.67139803342855  69.058100326858224 -194.29377993621122  68.513896731880394 -194.91905935377397  67.972323010903764 -195.5470886723063  67.433283764267884 -196.17764210573148  66.896621206635189 -196.81076702509918  66.362328675603763 -197.44591935603208  65.830149148343395 -198.0835889516049  65.300155156032574 -198.72294623702729  64.77210421831569 -199.36447695901452  64.24598948439565 -200.00768238086403  63.721676092844689 -200.65264026493008  63.199086728436619 -201.29918397988524  62.678128634680242 -201.94723375051294  61.86182226214104 -202.96268407248115  61.049523084050186 -203.98182227034189  60.240885186657948 -205.00428266069895  59.435584690716574 -206.02970472924019  58.633287654380631 -207.05776891687816  57.833695173464186 -208.08817323342078  57.036508709372427 -209.12062261324985  56.24142264611244 -210.15483542746358  55.448151846992545 -211.19054779252983  54.656425271989619 -212.22750530385699  53.865951712649768 -213.26545335712743  53.0764636153162 -214.30414448846102  52.287686478775612 -215.34333795023494  51.490211519220487 -216.39399086852174  50.693463108007933 -217.44515505271329  49.897162293802815 -218.49658427034248  49.101026680970229 -219.54802445597599  48.304779604334328 -220.59923069934698  47.508145717009278 -221.64995968716951  46.710846794994225 -222.69996217733902  45.912601597751191 -223.74898245691267  45.113127708952874 -224.79676141638134  44.312141284248519 -225.84303603177722  43.509352713459023 -226.88753171118503  42.70446219542962 -227.92995403744479  41.897169275788016 -228.97000392957239  41.372324817587057 -229.64617037223346  40.846464827229056 -230.32133263971829  40.319505593558368 -230.99540970324099  39.791363361983983 -231.66831362044582  39.261951845846013 -232.33995539420255  38.73118321460376 -233.01024323863282  38.198968818610041 -233.67908090038054  37.665218666550068 -234.34636769771075  37.129840390456543 -235.0119993958273  36.592738876952346 -235.67586745579629  36.053817173447399 -236.33785635976676  35.512977444481969 -236.99784191105101  34.970117864264857 -237.65569993823348  34.706804145854377 -237.97479356845878  34.443015286434409 -238.29338608406786  34.178739760502054 -238.61146307718937  33.913965902549954 -238.92900967907534  33.648681906480711 -239.24601055794705  33.382875826929471 -239.56244992463985  33.116535576919823 -239.87831152161507  32.849648931188554 -240.1935786395924  32.58220352235994 -240.50823409744393  32.3141868445529 -240.82226026193578  32.045586250575504 -241.13563903182467  31.776388953728173 -241.44835184839721  31.506582026852787 -241.76037968976971  31.243893184613199 -242.06417556982575  30.980626513748984 -242.36732163688899  30.716770051409608 -242.6698004062095  30.452311702910762 -242.97159376764165  30.187239241529078 -243.27268298588484  29.921540308933487 -243.57304870030117  29.655202414482261 -243.87267092511777  29.388212936125587 -244.17152904878694  29.120559119485158 -244.46960183557317  28.852228078600046 -244.76686742293953  28.583206795450845 -245.06330332462286  28.313482120192852 -245.35888642793179  28.043040771072786 -245.6535929955441  27.780924295124212 -245.93922774342886  27.518134774886931 -246.22403843139443  27.254660057674577 -246.50800353175012  26.990487909691449 -246.79110069552527  26.725606015594625 -247.07330675133485  26.460001979330855 -247.3545977073853  26.193663322833437 -247.6349487487106  25.926577487707604 -247.91433424017319  25.658731833398999 -248.19272772388757  25.390113638874354 -248.47010192095848  25.1207101013207 -248.74642873058065  24.850508336987982 -249.0216792303757  24.579495380739804 -249.29582367631622  24.317859090312286 -249.56048310792409  24.055467165069121 -249.82411089142957  23.792307839987973 -250.08668034623693  23.528369388984885 -250.34816375050249  23.263640126074186 -250.60853235511593  22.998108403214534 -250.86775635777278  22.73176261356987 -251.12580494225361  22.464591187423565 -251.38264622906416  22.196582596453055 -251.63824732733701  21.927725349976686 -251.89257428895925  21.658007997723033 -252.14559214265955  21.387419128120108 -252.39726487283025  21.115947369169398 -252.64755543037083  20.854636346580534 -252.88847802748404  20.592507983313986 -253.12811911124498  20.329551996708847 -253.36644566609706  20.065758367024948 -253.6034234526463  19.801117336593872 -253.83901699957099  19.535619411471508 -254.07318961969099  19.269255358816434 -254.30590338412054  19.002016210335633 -254.53711915645471  18.733893258494895 -254.76679655522969  18.464878060024748 -254.9948939883424  18.194962433190927 -255.2213686266594  17.924138459571786 -255.44617642086445  17.6523984831055 -255.66927209262511  17.391164051295213 -255.88374283240984  17.129084103608662 -256.09663057669258  16.866151696744787 -256.30789498281558  16.602360497251905 -256.51749442316964  16.337704780614242 -256.72538596846454  16.072179432965779 -256.93152541886889  15.805779948469448 -257.13586725678152  15.53850243263757 -257.33836470613545  15.270343598809283 -257.53896967015538  15.001300771300212 -257.73763278624148  14.731371883024414 -257.93430338527992  14.46055547700327 -258.12892951688258  14.188850705572788 -258.32145793646322  13.927315087540405 -258.50678052980328  13.664957679832872 -258.69015941241821  13.401777622712478 -258.87154672504545  13.137775141189531 -259.05089354570435  12.872951536987275 -259.22814990665381  12.607309177333141 -259.40326476232991  12.340851489072854 -259.57618603882725  12.073582945356092 -259.74686057053475  11.805509061035842 -259.91523416809139  11.536636379431727 -260.08125155709274  11.266972466333884 -260.24485642455471  10.996525898886896 -260.4059913895079  10.725306257500662 -260.56459801829851  10.462937448149477 -260.71802874523678  10.199846451157875 -260.869094519724  9.9360421437709174 -261.01774178422875  9.671534908315623 -261.16391665365319  9.4063366099810182 -261.3075649105391  9.1404605747781869 -261.44863201428342  8.8739215672234266 -261.58706308675261  8.6067357683555077 -261.72280293078421  8.3389207534431193 -261.85579601041377  8.0704954698989102 -261.98598646852213  7.8014802151176745 -262.11331811366085  7.531896614293446 -262.23773442825501  7.2617675982939476 -262.35917856439136  6.997894846001028 -262.47780999935333  6.733502053341673 -262.5936076803427  6.4686113168558723 -262.7065179730597  6.2032462756614457 -262.81648817777273  5.9374320778277516 -262.92346654999159  5.6711953453721247 -263.02740226182829  5.4045641415094474 -263.12824546136596  5.1375679348236289 -263.22594719652528  4.8702375669848781 -263.3204594971034  4.6026052170074472 -263.41173530037531  4.3347043683677935 -263.49972850772144  4.0665697741254139 -263.5843939487329  3.7982374232110576 -263.6656873998665  3.5063644415949047 -263.75411266037412  3.2142553928043065 -263.83855215352941  2.9219583516187853 -263.91894860141139  2.6295225569607754 -263.99524826477312  2.3369983673865082 -264.06740092640018  2.0444372168531748 -264.13535991965438  1.7518915700842881 -264.19908208865337  1.4594148784180851 -264.25852783437551  1.167061535169275 -264.31366106979215  0.87488683140520984 -264.36444925685066  0.58294691142236421 -264.41086338057551  0.29129872840698395 -264.45287796443142  2.4424906541753444e-15 -264.49047106270001 
 0 14 0.02698566454253 13 0.052927977031709997 13 0.079268564569609998 13 0.10577207900299999 13 0.13290105070200001 13 0.16098601795199999 13 0.19023269420700001 13 0.22074144504500001 13 0.25252976399999999 13 0.28555250052199999 13 0.31971812357200002 13 0.39095135330000003 13 0.50256904606300001 13 0.61541756425100003 13 0.68878363538300003 13 0.72436981086999996 13 0.75901714699099998 13 0.79259794974800002 13 0.82501690370000003 13 0.856222469983 13 0.88622162162100004 13 0.915097984857 13 0.94303200903999995 13 0.97031906855899996 13 1 14
1 0 0 1 0 
1 0 0 1 0 
1 4.650589669589654e-15 -500 1 0 
7 0 0  3 6 4  -556.15932482700998 -219.00215096110014  -456.06553753420997 -225.57113887950027  -250.47230932739001 -326.49293623890026  -15.743709737339998 -660.87875931380017  238.46420521636003 -781.25666058149022  443.84067517299002 -719.00215096110014 
 0 4 26.925824035672999 1 69.352230906865003 1 115.44995319333 4
1 0 0 1 -2.7755575615628914e-17 
1 500 -1449.9999999999791 0 1 
1 0 0 -2.7755575615628914e-17 -1 
1 1000 0 0 -1 
1 6.1973537412995938e-11 -600.00000000000534 1 -2.7755575615628914e-17 
1 500 -1449.9999999999397 0 1 
1 2899.9999999999773 2.9774582799291238e-10 -2.7755575615628914e-17 -1 
1 0 0 0 -1 
1 0 0 1 -2.7755575615628914e-17 
1 500 -1449.9999999999791 0 1 
1 -500 -1449.9999999999791 1 0 
1 0 0 1 0 
1 500 1449.9999999999986 -1 0 
1 0 0 1 0 
1 -500 1449.9999999999986 -0 -1 
1 0 0 1 2.7755575615628914e-17 
1 1000 0 0 -1 
1 0 0 2.7755575615628914e-17 -1 
1 0 -599.99999999999272 1 0 
1 500 1449.9999999999952 -1 0 
1 -500 1449.9999999999952 -0 -1 
1 -1.9142021301377099e-11 -599.99999999999272 1 2.7755575615628914e-17 
1 -500 -1449.9999999999397 1 0 
1 0 -600.00000000000534 1 0 
1 0 0 0 -1 
1 2899.9999999999773 -2.9774582799291238e-10 2.7755575615628914e-17 -1 
Curves 34
7 0 0  3 6 4  1500 500 1000  1493.4310120815999 500 899.90621270719998  1392.5092147221999 500 694.31298450038003  1058.1233916473 500 459.58438491033002  937.74549037960992 500 205.37646995662999  1000 500 0 
 0 4 26.925824035672999 1 69.352230906865003 1 115.44995319333 4
1 908.74146313119991 500 100 -1 0 0 
2 2000 500 500 0 -1 0 0 0 -1 1 0 0 500
1 1000 500 0 1 0 0 
1 2000 500 1000 -1 0 0 
1 1000 0 0 0 1 0 
1 2000 500 0 0 -1 0 
1 1000 -500 0 1 0 0 
1 1000 0 0 0 -1 0 
2 2000 -500 500 0 -1 0 0 0 -1 1 0 0 500
1 2000 500 1000 0 -1 0 
3 2000 352.65396141693003 500 0.1736481776670335 -0.98480775301218992 -0 -0.98480775301218992 -0.1736481776670335 0 -0 0 -1 507.71330594287002 500
1 2300 0 100 0 -1 0 
1 1733.0723189773998 305.58740935471002 1000 -0.98480775301218981 -0.1736481776670335 0 
1 1500 0 1000 0 1 0 
1 2000 -500 1000 -1 0 0 
1 1500 0 1000 0 -1 0 
7 0 0  4 65 22  978.48894579849002 500.00000399999999 100  978.48894579849002 496.12500393799996 100  978.48894579849002 492.25000387599999 100  978.48894579849002 488.37500381399997 100  978.48894579849002 480.62500368999997 100  978.48894579849002 476.750003628 100  978.48894579849002 472.87500356599998 100  978.48894579849002 465.12500344199998 100  978.48894579849002 461.25000338000001 100  978.48894579849002 457.37500331799998 100  978.48894579849002 449.62500319399999 100  978.48894579849002 445.75000313200002 100  978.48894579849002 441.87500306999999 100  978.48894579849002 434.125002946 100  978.48894579849002 430.25000288400003 100  978.48894579849002 426.375002822 100  978.48894579849002 418.625002698 100  978.48894579849002 414.75000263600998 100  978.48894579849002 410.87500257400001 100  978.48894579849002 403.12500245000996 100  978.48894579849002 399.25000238800999 100  978.48894579849002 395.37500232600996 100  978.48894579849002 387.62500220200997 100  978.48894579849002 383.75000214001 100  978.48894579849002 379.87500207800997 100  978.48894579849002 372.12500195400997 100  978.48894579849002 368.25000189201 100  978.48894579849002 364.37500183000998 100  978.48894579849002 356.62500170600998 100  978.48894579849002 352.75000164401001 100  978.48894579849002 348.87500158200999 100  978.48894579849002 341.12500145800999 100  978.48894579849002 337.25000139601002 100  978.48894579849002 333.37500133400999 100  978.48894579849002 325.62500121001 100  978.48894579849002 321.75000114801003 100  978.48894579849002 317.87500108601 100  978.48894579849002 310.12500096201001 100  978.48894579849002 306.25000090000998 100  978.48894579849002 302.37500083801001 100  978.48894579849002 294.62500071401001 100  978.48894579849002 290.75000065200999 100  978.48894579849002 286.87500059001002 100  978.48894579849002 279.12500046601002 100  978.48894579849002 275.25000040401 100  978.48894579849002 271.37500034201003 100  978.48894579849002 263.62500021801003 100  978.48894579849002 259.75000015601 100  978.48894579849002 255.87500009401001 100  978.48894579849002 248.12499997001001 100  978.48894579849002 244.24999990800998 100  978.48894579849002 240.37499984600998 100  978.48894579849002 232.62499972200999 100  978.48894579849002 228.74999966000999 100  978.48894579849002 224.87499959800999 100  978.48894579849002 217.12499947401 100  978.48894579849002 213.24999941201 100  978.48894579849002 209.37499935001 100  978.48894579849002 201.62499922601 100  978.48894579849002 197.74999916401001 100  978.48894579849002 193.87499910201001 100  978.48894579849002 185.63349964732001 100  978.48894579849002 181.26700025462998 100  978.48894579849002 176.90050086193997 100  978.48894579849002 172.53400146926001 100 
 0 5 0.047333158643079999 3 0.094666317286159998 3 0.141999475929 3 0.189332634572 3 0.236665793215 3 0.283998951858 3 0.33133211050200001 3 0.37866526914499998 3 0.42599842778800001 3 0.47333158643099998 3 0.52066474507399996 3 0.56799790371699999 3 0.61533106236000001 3 0.66266422100300004 3 0.70999737964599996 3 0.75733053828899999 3 0.80466369693200002 3 0.85199685557500004 3 0.89933001421799996 3 0.94666317286099999 3 1 5
7 0 0  4 95 32  978.48894579849002 172.53400146926001 100  977.32666013566995 172.32905914761002 109.69787076304999  976.41966057434001 172.16913065346 119.42023058425001  975.7870579795499 172.05758574792998 129.13753450259  975.10283082415992 171.93693803950001 148.11200635575  975.02955182224002 171.92401697434002 157.37281018665999  975.22633857346 171.95871578803002 166.55986512363  976.15821625620003 172.12303096622003 184.85985420872998  976.90158520615 172.25410696870998 193.96989869294998  977.91369502947009 172.43256923800001 202.93606012651  980.44994161715999 172.87977794113999 220.58899456597999  981.97742306177997 173.14911413236001 229.27389896661998  983.74331689342989 173.46048885995 237.76759663454001  987.75413714637 174.16770468532002 254.55295814256999  990.00959994637992 174.56540363094001 262.83504611758997  992.46812675466003 174.99890824003 270.90118688577996  997.83870322846997 175.94588577433001 286.88765276798  1000.7637897722 176.46165745288999 294.79259702139001  1003.857241892 177.00711652515997 302.47620831704  1010.4739549104 178.17382155389001 317.73448856863001  1014.009701168 178.79726901606 325.29127998967999  1017.6828632167999 179.44494658976998 332.63486917907994  1025.4331922808999 180.81153871314001 347.23590453897998  1029.5208919924999 181.53231046131998 354.47580478220999  1033.7197552422001 182.27268334055998 361.51879730760004  1042.4918407462999 183.81943869202001 375.5328512561  1047.0732994156999 184.62727346642001 382.48842664637999  1051.7441521918001 185.45087083378002 389.26773603101998  1061.4264157334001 187.15811513047998 402.76421560537005  1066.4439352109 188.04283919060001 409.46872075406998  1071.5329008282001 188.94016113281998 416.01956554780998  1082.0138253471 190.78823090827001 429.06716038056999  1087.4101166656001 191.73974266349001 435.55419122217995  1092.8629834810999 192.70123020528001 441.91077153531  1104.0310155447 194.67045557950001 454.57765690164996  1109.7491123669001 195.67871032757 460.88096017649002  1115.5113095467 196.69474115853001 467.07692036512003  1127.2548286541 198.76544042562 479.43092894042002  1133.2380188674001 199.82043829093999 485.58429595270002  1139.2546502968 200.88133274492003 491.65301244487  1151.4619684784 203.03381230244 503.76175728805998  1157.6537444065 204.12558945705999 509.79896328652001  1163.8696379600001 205.22161919975002 515.77371388652  1176.4290107218999 207.43617547843999 527.70467079114997  1182.7730348262 208.55479809428999 533.65943986178002  1189.1327889855002 209.67619434325002 539.57349931160002  1201.9324292403001 211.93311626355 551.39406090424995  1208.3725123283 213.06867666995998 557.30004575225007  1214.8205338849 214.20563684257999 563.18673740436998  1227.7486257773999 216.48520825231 574.96424934795004  1234.2287156332 217.62782293130002 580.85502042307996  1240.7092471400001 218.77051548528001 586.74774234407994  1253.6539590277 221.05301744857999 598.54952921288998  1260.1181382730999 222.19282665767 604.45857072622994  1266.5752756264001 223.33139419120999 610.39080684468001  1279.4247724404001 225.59710716802999 622.28419319827003  1285.8172651788002 226.72427611181001 628.24490592377003  1292.1949660148998 227.84883684408999 634.25022790292996  1304.8374215442002 230.07804285632002 646.30255903117995  1311.1026089065999 231.18276442748999 652.34827214442998  1317.3446921986999 232.28341212772 658.46033440565998  1329.6683018263 234.45639700480001 670.73900109297006  1335.7507468079998 235.52889616373 676.90299833121003  1341.8008835032001 236.59569850009001 683.15552621560005  1353.6938775756998 238.69275423645999 695.72799862929003  1359.5383592542 239.72329404464 702.04356850535999  1365.3400531100999 240.74628920525001 708.47033723847005  1376.6907102055002 242.74771629994001 721.40421463950997  1382.24226583 243.72660534143 727.90474118771999  1387.7388228826999 244.69579665083 734.53954037135998  1398.4354801257998 246.58190592617999 747.90262545659994  1403.6394491821 247.49950607757998 754.62174575956988  1408.7739336824002 248.40485422700999 761.49831948259009  1418.7049867455999 250.15596682889998 775.35872737974  1423.5070410172 251.0026985598 782.33059424060002  1428.2222159456001 251.83411111845999 789.48253864625997  1437.2760927044999 253.43055387104999 803.90884631920994  1441.6222158122 254.19689263641999 811.16854294984  1445.8604697646001 254.94421115931999 818.62912785220999  1453.9255476787 256.36630199708998 833.69054822015005  1457.7618917024001 257.04275295574996 841.27468621994001  1461.4651685029 257.69574057271001 849.07654149867994  1468.4295921379999 258.92375636465999 864.84304555831  1471.7020929805999 259.50078655761001 872.79048775448007  1474.8118831842999 260.04912647486998 880.96506608119989  1480.5632514772001 261.06324788089 897.50725624793006  1483.2168753170001 261.53115336049001 905.85966469146001  1485.6744218573999 261.96448512191 914.43641815480999  1490.0994145770001 262.74473072781001 931.82483439143994  1492.0770663562998 263.09344409495003 940.62635691233004  1493.8240456765002 263.40148368385002 949.63181413464997  1496.9522442690002 263.95306949671999 968.81852267368004  1498.2882117726001 264.18863661295001 979.03386197271993  1499.3070965716001 264.36829349326001 989.44200741860993  1500 264.49047106270001 1000 
 0 5 0.02698566454253 3 0.052927977031709997 3 0.079268564569609998 3 0.10577207900299999 3 0.13290105070200001 3 0.16098601795199999 3 0.19023269420700001 3 0.22074144504500001 3 0.25252976399999999 3 0.28555250052199999 3 0.31971812357200002 3 0.35490113267000001 3 0.39095135330000003 3 0.42770091664900001 3 0.46496959914800001 3 0.50256904606300001 3 0.540306279083 3 0.57798680152799997 3 0.61541756425100003 3 0.65241003637399997 3 0.68878363538300003 3 0.72436981086999996 3 0.75901714699099998 3 0.79259794974800002 3 0.82501690370000003 3 0.856222469983 3 0.88622162162100004 3 0.915097984857 3 0.94303200903999995 3 0.97031906855899996 3 1 5
7 0 0  3 6 4  1500 0 1000  1493.4310120815999 0 899.90621270719998  1392.5092147221999 0 694.31298450038003  1058.1233916473 0 459.58438491033002  937.74549037960992 0 205.37646995662999  1000 0 0 
 0 4 26.925824035672999 1 69.352230906865003 1 115.44995319333 4
7 0 0  3 6 4  1500 -500 1000  1493.4310120815999 -500 899.90621270719998  1392.5092147221999 -500 694.31298450038003  1058.1233916473 -500 459.58438491033002  937.74549037960992 -500 205.37646995662999  1000 -500 0 
 0 4 26.925824035672999 1 69.352230906865003 1 115.44995319333 4
1 98.480775301219992 17.364817766689999 100 0.98480775301218981 0.1736481776670335 0 
1 98.480775301219992 17.364817766689999 100 -0.1736481776670335 0.98480775301218981 0 
1 -5.7081312989399997 608.24946957401994 100 0.98480775301218981 0.1736481776670335 0 
1 2954.4232590366 520.94453300078999 100 -0.1736481776670335 0.98480775301218981 0 
1 98.480775301219992 17.364817766689999 100 0.98480775301218981 0.1736481776670335 0 
1 98.480775301219992 17.364817766689999 1100 0 0 -1 
1 2954.4232590366 520.94453300078999 100 0 0 1 
1 2954.4232590366 520.94453300078999 1100 -0.98480775301218981 -0.1736481776670335 0 
1 2954.4232590366 520.94453300078999 1100 -0.1736481776670335 0.98480775301218981 0 
1 2850.2343524364001 1111.8291848081001 100 0 0 1 
1 2850.2343524364001 1111.8291848081001 1100 -0.98480775301218981 -0.1736481776670335 0 
1 -5.7081312989399997 608.24946957401994 1100 0 0 -1 
1 98.480775301219992 17.364817766689999 1100 -0.1736481776670335 0.98480775301218981 0 
Polygon3D 0
PolygonOnTriangulations 0
Surfaces 17
1 1719.0021509611001 500 443.84067517299002 -0 -1 -0 0 0 -1 1 -0 0 
6 0 -1 0 
7 0 0  3 6 4  1500 0 1000  1493.4310120815999 0 899.90621270719998  1392.5092147221999 0 694.31298450038003  1058.1233916473 0 459.58438491033002  937.74549037960992 0 205.37646995662999  1000 0 0 
 0 4 26.925824035672999 1 69.352230906865003 1 115.44995319333 4
1 98.480775301219992 17.364817766689999 100 0 0 -1 0.98480775301218992 0.1736481776670335 0 0.1736481776670335 -0.98480775301218992 0 
1 1719.0021509611001 500 443.84067517299002 -0 -1 -0 0 0 -1 1 -0 0 
2 2000 0 500 0 -1 0 0 0 -1 1 0 0 500
1 1000 0 0 0 0 -1 1 0 0 0 -1 0 
6 0 -1 0 
7 0 0  3 6 4  1500 0 1000  1493.4310120815999 0 899.90621270719998  1392.5092147221999 0 694.31298450038003  1058.1233916473 0 459.58438491033002  937.74549037960992 0 205.37646995662999  1000 0 0 
 0 4 26.925824035672999 1 69.352230906865003 1 115.44995319333 4
1 2000 0 1000 0 0 1 -1 0 0 0 -1 0 
2 2000 0 500 0 -1 0 0 0 -1 1 0 0 500
1 1719.0021509611001 -500 443.84067517299002 -0 -1 -0 0 0 -1 1 -0 0 
6 0 1 0 
7 0 0  3 6 4  1500 0 1000  1493.4310120815999 0 899.90621270719998  1392.5092147221999 0 694.31298450038003  1058.1233916473 0 459.58438491033002  937.74549037960992 0 205.37646995662999  1000 0 0 
 0 4 26.925824035672999 1 69.352230906865003 1 115.44995319333 4
1 1526.4520171689001 269.15467538373997 600 0.1736481776670335 -0.98480775301218992 -0 0 0 -1 0.98480775301218992 0.1736481776670335 0 
1 2000 0 1000 0 0 1 -1 0 0 0 -1 0 
1 98.480775301219992 17.364817766689999 1100 -0.98480775301218992 -0.1736481776670335 -0 0 0 -1 0.1736481776670335 -0.98480775301218992 0 
1 1422.2631105687001 860.03932719107002 600 0.1736481776670335 -0.98480775301218992 -0 0 0 -1 0.98480775301218992 0.1736481776670335 0 
1 2954.4232590366 520.94453300078999 100 0.98480775301218992 0.1736481776670335 0 0 -0 1 0.1736481776670335 -0.98480775301218992 -0 
1 2954.4232590366 520.94453300078999 1100 0 0 1 -0.98480775301218992 -0.1736481776670335 0 0.1736481776670335 -0.98480775301218992 0 
Triangulations 0

TShapes 101
Ve
0.000707248203542785
978.48894579849 500 100
0 0

0101101
*
Ve
1e-07
1000 500 0
0 0

0101101
*
Ed
 1e-07 1 1 0
1  1 0 107.501223774834 115.44995319333
2  1 1 0 107.501223774834 115.44995319333
2  2 2 0 107.501223774834 115.44995319333
0

0101000
+101 0 -100 0 *
Ve
0.000750250000123953
2300 500 100
0 0

0101101
*
Ed
 1e-07 1 1 0
1  2 0 -1391.2585368688 -69.7474826672901
2  3 3 0 -1391.2585368688 -69.7474826672901
2  4 4 0 -1391.2585368688 -69.7474826672901
0

0101000
+98 0 -101 0 *
Ve
1e-07
2000 500 0
0 0

0101101
*
Ed
 1e-07 1 1 0
1  3 0 0 0.643501108793284
2  5 1 0 0 0.643501108793284
2  6 5 0 0 0.643501108793284
0

0101000
+96 0 -98 0 *
Ed
 1e-07 1 1 0
1  4 0 0 1000
2  7 1 0 0 1000
2  8 6 0 0 1000
0

0101000
+100 0 -96 0 *
Wi

0101100
+99 0 +97 0 +95 0 +94 0 *
Fa
0  1e-07 1 0

0111000
+93 0 *
Ve
1.00000242835192e-07
1500 500 1000
0 0

0101101
*
Ed
 1.00000242835192e-07 1 1 0
1  1 0 0 107.501223774834
2  1 1 0 0 107.501223774834
2  2 2 0 0 107.501223774834
2  9 7 0 0 107.501223774834
0

0101000
+91 0 -101 0 *
Ve
1e-07
2000 500 1000
0 0

0101101
*
Ed
 1e-07 1 1 0
1  5 0 0 500
2  10 1 0 0 500
2  11 8 0 0 500
0

0101000
+89 0 -91 0 *
Ed
 1e-07 1 1 0
1  3 0 0.643501108793284 3.14159265358979
2  5 1 0 0.643501108793284 3.14159265358979
2  6 5 0 0.643501108793284 3.14159265358979
2  12 9 0 0.643501108793284 3.14159265358979
0

0101000
+98 0 -89 0 *
Wi

0101100
+90 0 +88 0 +87 0 -97 0 *
Fa
0  1e-07 1 0

0111000
+86 0 *
Ve
1e-07
1000 0 0
0 0

0101101
*
Ed
 1e-07 1 1 0
1  6 0 0 500
2  13 6 0 0 500
2  14 2 0 0 500
0

0101000
+84 0 -100 0 *
Ve
1e-07
2000 -500 0
0 0

0101101
*
Ed
 1e-07 1 1 0
1  7 0 0 1000
2  15 6 0 0 1000
2  16 5 0 0 1000
4 G1 6 0 5 0
0

0101000
+96 0 -82 0 *
Ve
1e-07
1000 -500 0
0 0

0101101
*
Ed
 1e-07 1 1 0
1  8 0 0 1000
2  17 6 0 0 1000
2  18 10 0 0 1000
0

0101000
+80 0 -82 0 *
Ed
 1e-07 1 1 0
1  9 0 0 500
2  19 6 0 0 500
2  20 11 0 0 500
0

0101000
+84 0 -80 0 *
Wi

0101100
+83 0 +94 0 +81 0 -79 0 -78 0 *
Fa
0  1e-07 6 0

0111000
+77 0 *
Ve
1e-07
2000 -500 1000
0 0

0101101
*
Ed
 1e-07 1 1 0
1  10 0 0 3.14159265358979
2  21 5 0 0 3.14159265358979
2  22 10 0 0 3.14159265358979
0

0101000
+82 0 -75 0 *
Ve
0.000707248203542785
2000 352.65396141693 1000
0 0

0101101
*
Ed
 1e-07 1 1 0
1  11 0 147.34603858307 1000
2  23 5 0 147.34603858307 1000
2  24 8 0 147.34603858307 1000
4 G1 5 0 8 0
0

0101000
+73 0 -75 0 *
Ve
0.000500100001
2300 405.55205562947 100
0 0

0101101
*
Ed
 1.00011437257497e-07 1 1 0
1  12 0 2.21429743558818 4.71238898038469
2  25 12 0 2.21429743558818 4.71238898038469
2  26 9 0 2.21429743558818 4.71238898038469
2  27 5 0 2.21429743558818 4.71238898038469
0

0101000
+71 0 -73 0 *
Ed
 1e-07 1 1 0
1  13 0 -500 -405.55205562947
2  28 3 0 -500 -405.55205562947
2  29 9 0 -500 -405.55205562947
2  30 5 0 -500 -405.55205562947
0

0101000
+98 0 -71 0 *
Wi

0101100
-81 0 -74 0 +72 0 +70 0 +69 0 +95 0 *
Fa
0  1e-07 5 0

0111000
+68 0 *
Ed
 1e-07 1 1 0
1  11 0 0 147.34603858307
2  23 5 0 0 147.34603858307
2  24 8 0 0 147.34603858307
4 G1 5 0 8 0
2  31 9 0 0 147.34603858307
0

0101000
+89 0 -73 0 *
Wi

0101100
-69 0 -70 0 +66 0 +87 0 *
Fa
0  1e-07 5 0

0111000
+65 0 *
Ve
0.000707248203542785
1500 264.4904710627 1000
0 0

0101101
*
Ed
 1e-07 1 1 0
1  14 0 -271.045470759297 236.667835183576
2  32 12 0 -271.045470759297 236.667835183576
2  33 13 0 -271.045470759297 236.667835183576
0

0101000
+73 0 -63 0 *
Ed
 1e-07 1 1 0
1  15 0 264.4904710627 500
2  34 8 0 264.4904710627 500
2  35 2 0 264.4904710627 500
2  36 7 0 264.4904710627 500
0

0101000
+63 0 -91 0 *
Wi

0101100
-66 0 -62 0 -61 0 +88 0 *
Fa
0  1e-07 8 0

0111000
+60 0 *
Ve
1e-07
1500 -500 1000
0 0

0101101
*
Ed
 1e-07 1 1 0
1  16 0 0 500
2  37 8 0 0 500
2  38 10 0 0 500
0

0101000
+75 0 -58 0 *
Ve
1e-07
1500 0 1000
0 0

0101101
*
Ed
 1e-07 1 1 0
1  17 0 0 500
2  39 8 0 0 500
2  40 11 0 0 500
0

0101000
+56 0 -58 0 *
Ed
 1e-07 1 1 0
1  15 0 0 264.4904710627
2  34 8 0 0 264.4904710627
2  35 2 0 0 264.4904710627
0

0101000
+56 0 -63 0 *
Wi

0101100
-72 0 -57 0 +55 0 -54 0 +62 0 *
Fa
0  1e-07 8 0

0111000
+53 0 *
Ve
0.000500100001
978.48894579849 172.53400146926 100
0 0

0101101
*
Ed
 1.00004915230412e-07 1 1 0
1  18 0 1.22150083788714e-08 1
2  41 3 0 1.22150083788714e-08 1
2  42 7 0 1.22150083788714e-08 1
2  43 2 0 1.22150083788714e-08 1
0

0101000
+101 0 -51 0 *
Ed
 1.25676364303284e-05 1 1 0
1  19 0 0 1
2  44 12 0 0 1
2  45 7 0 0 1
2  46 2 0 0 1
0

0101000
+51 0 -63 0 *
Ed
 1e-07 1 1 0
1  20 0 0 115.44995319333
2  47 2 0 0 115.44995319333
2  48 11 0 0 115.44995319333
4 G2 2 0 11 0
0

0101000
+56 0 -84 0 *
Wi

0101100
-83 0 +99 0 -50 0 -49 0 +54 0 -48 0 *
Fa
0  1e-07 2 0

0111000
+47 0 *
Wi

0101100
+90 0 +61 0 +49 0 +50 0 *
Fa
0  1e-07 2 0

0111000
+45 0 *
Ed
 1e-07 1 1 0
1  21 0 0 115.44995319333
2  49 11 0 0 115.44995319333
2  50 10 0 0 115.44995319333
0

0101000
+58 0 -80 0 *
Wi

0101100
-78 0 -48 0 +55 0 +43 0 *
Fa
0  1e-07 11 0

0111000
+42 0 *
Wi

0101100
+79 0 +74 0 +57 0 +43 0 *
Fa
0  1e-07 10 0

0111000
+40 0 *
Sh

0101100
-92 0 -85 0 +76 0 +67 0 +64 0 +59 0 +52 0 +46 0 +44 0 -41 0 
+39 0 *
So

0100000
+38 0 *
Ve
1e-07
98.48077530122 17.36481776669 100
0 0

0101101
*
Ed
 1e-07 1 1 0
1  22 0 0 893.583714999817
2  51 3 0 0 893.583714999817
2  52 12 0 0 893.583714999817
0

0101000
+36 0 -51 0 *
Ve
1e-07
-5.70813129894 608.24946957402 100
0 0

0101101
*
Ed
 1e-07 1 1 0
1  23 0 0 600.000000000005
2  53 3 0 0 600.000000000005
2  54 14 0 0 600.000000000005
0

0101000
+36 0 -34 0 *
Ve
1e-07
2850.2343524364 1111.8291848081 100
0 0

0101101
*
Ed
 1e-07 1 1 0
1  24 0 0 2899.99999999993
2  55 3 0 0 2899.99999999993
2  56 15 0 0 2899.99999999993
0

0101000
+34 0 -32 0 *
Ve
1e-07
2954.4232590366 520.94453300079 100
0 0

0101101
*
Ed
 1e-07 1 1 0
1  25 0 0 599.999999999993
2  57 3 0 0 599.999999999993
2  58 16 0 0 599.999999999993
0

0101000
+30 0 -32 0 *
Ed
 1e-07 1 1 0
1  26 0 2235.48120733721 2899.99999999998
2  59 3 0 2235.48120733721 2899.99999999998
2  60 12 0 2235.48120733721 2899.99999999998
0

0101000
+71 0 -30 0 *
Wi

0101100
-35 0 +33 0 +31 0 -29 0 -28 0 -69 0 +97 0 +50 0 *
Fa
0  1e-07 3 0

0111000
+27 0 *
Ve
1e-07
98.48077530122 17.36481776669 1100
0 0

0101101
*
Ed
 1e-07 1 1 0
1  27 0 0 1000
2  61 12 0 0 1000
2  62 14 0 0 1000
0

0101000
+25 0 -36 0 *
Ve
1e-07
2954.4232590366 520.94453300079 1100
0 0

0101101
*
Ed
 1e-07 1 1 0
1  28 0 0 1000
2  63 12 0 0 1000
2  64 16 0 0 1000
0

0101000
+30 0 -23 0 *
Ed
 1e-07 1 1 0
1  29 0 0 2899.99999999998
2  65 12 0 0 2899.99999999998
2  66 17 0 0 2899.99999999998
0

0101000
+23 0 -25 0 *
Wi

0101100
+24 0 +35 0 +49 0 -62 0 -70 0 +28 0 +22 0 +21 0 *
Fa
0  1e-07 12 0

0111000
+20 0 *
Ve
1e-07
2850.2343524364 1111.8291848081 1100
0 0

0101101
*
Ed
 1e-07 1 1 0
1  30 0 0 599.999999999993
2  67 16 0 0 599.999999999993
2  68 17 0 0 599.999999999993
0

0101000
+23 0 -18 0 *
Ed
 1e-07 1 1 0
1  31 0 0 1000
2  69 16 0 0 1000
2  70 15 0 0 1000
0

0101000
+32 0 -18 0 *
Wi

0101100
-17 0 -22 0 +29 0 +16 0 *
Fa
0  1e-07 16 0

0111000
+15 0 *
Ve
1e-07
-5.70813129894 608.24946957402 1100
0 0

0101101
*
Ed
 1e-07 1 1 0
1  32 0 0 2899.99999999993
2  71 15 0 0 2899.99999999993
2  72 17 0 0 2899.99999999993
0

0101000
+18 0 -13 0 *
Ed
 1e-07 1 1 0
1  33 0 0 1000
2  73 15 0 0 1000
2  74 14 0 0 1000
0

0101000
+13 0 -34 0 *
Wi

0101100
+31 0 +16 0 +12 0 +11 0 *
Fa
0  1e-07 15 0

0111000
+10 0 *
Ed
 1e-07 1 1 0
1  34 0 0 600.000000000005
2  75 14 0 0 600.000000000005
2  76 17 0 0 600.000000000005
0

0101000
+25 0 -13 0 *
Wi

0101100
-33 0 -24 0 +8 0 +11 0 *
Fa
0  1e-07 14 0

0111000
+7 0 *
Wi

0101100
-8 0 -21 0 +17 0 +12 0 *
Fa
0  1e-07 17 0

0111000
+5 0 *
Sh

0101100
+26 0 +19 0 -44 0 +85 0 -64 0 +14 0 -9 0 +6 0 +4 0 -59 0 
*
So

0100000
+3 0 *
Co

1100000
+37 0 +2 0 *

+1 0 