DBRep_DrawableShape

CASCADE Topology V3, (c) Open Cascade
Locations 0
Curve2ds 0
Curves 44
1 0 0 0 0 0 1 
1 0 0 0 0 1 0 
1 0 100 0 0 0 1 
1 0 0 100 0 1 0 
1 100 0 0 0 0 1 
1 100 0 0 0 1 0 
1 100 100 0 0 0 1 
1 100 0 100 0 1 0 
1 0 0 0 1 0 0 
1 0 0 100 1 0 0 
1 0 100 0 1 0 0 
1 0 100 100 1 0 0 
1 200 0 0 0 0 1 
1 200 0 0 0 1 0 
1 200 100 0 0 0 1 
1 200 0 100 0 1 0 
1 100 0 0 1 0 0 
1 100 0 100 1 0 0 
1 100 100 0 1 0 0 
1 100 100 100 1 0 0 
1 -80.000017999999997 -40.000017999999997 -40.000017999999997 0 0 1 
1 -80.000017999999997 -40.000017999999997 -40.000017999999997 0 1 0 
1 -80.000017999999997 140.00001800000001 -40.000017999999997 0 0 1 
1 -80.000017999999997 -40.000017999999997 140.00001800000001 0 1 0 
1 -80.000017999999997 -40.000017999999997 -40.000017999999997 1 0 0 
1 -80.000017999999997 -40.000017999999997 140.00001800000001 1 0 0 
1 280.00001800000001 -40.000017999999997 -40.000017999999997 0 0 1 
1 280.00001800000001 -40.000017999999997 140.00001800000001 0 1 0 
1 -80.000017999999997 140.00001800000001 140.00001800000001 1 0 0 
1 -80.000017999999997 140.00001800000001 -40.000017999999997 1 0 0 
1 280.00001800000001 140.00001800000001 -40.000017999999997 0 0 1 
1 280.00001800000001 -40.000017999999997 -40.000017999999997 0 1 0 
1 -40.000014 -20.000014 -20.000014 0 0 1 
1 -40.000014 -20.000014 -20.000014 0 1 0 
1 -40.000014 120.00001399999999 -20.000014 0 0 1 
1 -40.000014 -20.000014 120.00001399999999 0 1 0 
1 -40.000014 -20.000014 -20.000014 1 0 0 
1 -40.000014 -20.000014 120.00001399999999 1 0 0 
1 240.00001399999999 -20.000014 -20.000014 0 0 1 
1 240.00001399999999 -20.000014 120.00001399999999 0 1 0 
1 -40.000014 120.00001399999999 120.00001399999999 1 0 0 
1 -40.000014 120.00001399999999 -20.000014 1 0 0 
1 240.00001399999999 120.00001399999999 -20.000014 0 0 1 
1 240.00001399999999 -20.000014 -20.000014 0 1 0 
Polygon3D 0
PolygonOnTriangulations 0
Surfaces 23
1 0 0 0 1 0 0 0 0 1 0 -1 0 
1 0 0 0 0 1 0 0 -0 1 1 0 -0 
1 0 0 0 0 0 1 1 0 -0 -0 1 0 
1 0 100 0 0 1 0 0 -0 1 1 0 -0 
1 0 0 100 0 0 1 1 0 -0 -0 1 0 
1 100 0 0 1 0 0 0 0 1 0 -1 0 
1 100 0 0 0 1 0 0 -0 1 1 0 -0 
1 100 0 0 0 0 1 1 0 -0 -0 1 0 
1 100 100 0 0 1 0 0 -0 1 1 0 -0 
1 100 0 100 0 0 1 1 0 -0 -0 1 0 
1 200 0 0 1 0 0 0 0 1 0 -1 0 
1 -80.000017999999997 -40.000017999999997 -40.000017999999997 1 0 0 0 0 1 0 -1 0 
1 -80.000017999999997 -40.000017999999997 -40.000017999999997 0 1 0 0 -0 1 1 0 -0 
1 -80.000017999999997 -40.000017999999997 -40.000017999999997 0 0 1 1 0 -0 -0 1 0 
1 -80.000017999999997 140.00001800000001 -40.000017999999997 0 1 0 0 -0 1 1 0 -0 
1 -80.000017999999997 -40.000017999999997 140.00001800000001 0 0 1 1 0 -0 -0 1 0 
1 280.00001800000001 -40.000017999999997 -40.000017999999997 1 0 0 0 0 1 0 -1 0 
1 -40.000014 -20.000014 -20.000014 1 0 0 0 0 1 0 -1 0 
1 -40.000014 -20.000014 -20.000014 0 1 0 0 -0 1 1 0 -0 
1 -40.000014 -20.000014 -20.000014 0 0 1 1 0 -0 -0 1 0 
1 -40.000014 120.00001399999999 -20.000014 0 1 0 0 -0 1 1 0 -0 
1 -40.000014 -20.000014 120.00001399999999 0 0 1 1 0 -0 -0 1 0 
1 240.00001399999999 -20.000014 -20.000014 1 0 0 0 0 1 0 -1 0 
Triangulations 0

TShapes 126
Ve
1e-07
0 0 0
0 0

0101101
*
Ve
1e-07
0 0 100
0 0

0101101
*
Ed
 1e-07 1 1 0
1  1 0 0 100
4 C0 1 0 2 0
0

0101000
+126 0 -125 0 *
Ve
1e-07
0 100 0
0 0

0101101
*
Ed
 1e-07 1 1 0
1  2 0 0 100
4 C0 1 0 3 0
0

0101000
+126 0 -123 0 *
Ve
1e-07
0 100 100
0 0

0101101
*
Ed
 1e-07 1 1 0
1  3 0 0 100
4 C0 1 0 4 0
0

0101000
+123 0 -121 0 *
Ed
 1e-07 1 1 0
1  4 0 0 100
4 C0 1 0 5 0
0

0101000
+125 0 -121 0 *
Wi

0101100
-124 0 +122 0 +120 0 -119 0 *
Fa
0  1e-07 1 0

0101000
+118 0 *
Ve
1e-07
100 0 0
0 0

0101101
*
Ve
1e-07
100 0 100
0 0

0101101
*
Ed
 1e-07 1 1 0
1  5 0 0 100
4 C0 6 0 7 0
0

0101000
+116 0 -115 0 *
Ve
1e-07
100 100 0
0 0

0101101
*
Ed
 1e-07 1 1 0
1  6 0 0 100
4 C0 6 0 8 0
0

0101000
+116 0 -113 0 *
Ve
1e-07
100 100 100
0 0

0101101
*
Ed
 1e-07 1 1 0
1  7 0 0 100
4 C0 6 0 9 0
0

0101000
+113 0 -111 0 *
Ed
 1e-07 1 1 0
1  8 0 0 100
4 C0 6 0 10 0
0

0101000
+115 0 -111 0 *
Wi

0101100
-114 0 +112 0 +110 0 -109 0 *
Fa
0  1e-07 6 0

0101000
+108 0 *
Ed
 1e-07 1 1 0
1  9 0 0 100
4 C0 2 0 3 0
0

0101000
+126 0 -116 0 *
Ed
 1e-07 1 1 0
1  10 0 0 100
4 C0 2 0 5 0
0

0101000
+125 0 -115 0 *
Wi

0101100
-106 0 +124 0 +105 0 -114 0 *
Fa
0  1e-07 2 0

0101000
+104 0 *
Ed
 1e-07 1 1 0
1  11 0 0 100
4 C0 4 0 3 0
0

0101000
+123 0 -113 0 *
Ed
 1e-07 1 1 0
1  12 0 0 100
4 C0 4 0 5 0
0

0101000
+121 0 -111 0 *
Wi

0101100
-102 0 +120 0 +101 0 -110 0 *
Fa
0  1e-07 4 0

0101000
+100 0 *
Wi

0101100
-122 0 +106 0 +112 0 -102 0 *
Fa
0  1e-07 3 0

0101000
+98 0 *
Wi

0101100
-119 0 +105 0 +109 0 -101 0 *
Fa
0  1e-07 5 0

0101000
+96 0 *
Sh

0101000
-117 0 +107 0 -103 0 +99 0 -97 0 +95 0 *
So

0100000
+94 0 *
Ve
1e-07
200 0 0
0 0

0101101
*
Ve
1e-07
200 0 100
0 0

0101101
*
Ed
 1e-07 1 1 0
1  13 0 0 100
4 C0 11 0 7 0
0

0101000
+92 0 -91 0 *
Ve
1e-07
200 100 0
0 0

0101101
*
Ed
 1e-07 1 1 0
1  14 0 0 100
4 C0 11 0 8 0
0

0101000
+92 0 -89 0 *
Ve
1e-07
200 100 100
0 0

0101101
*
Ed
 1e-07 1 1 0
1  15 0 0 100
4 C0 11 0 9 0
0

0101000
+89 0 -87 0 *
Ed
 1e-07 1 1 0
1  16 0 0 100
4 C0 11 0 10 0
0

0101000
+91 0 -87 0 *
Wi

0101100
-90 0 +88 0 +86 0 -85 0 *
Fa
0  1e-07 11 0

0101000
+84 0 *
Ed
 1e-07 1 1 0
1  17 0 0 100
4 C0 7 0 8 0
0

0101000
+116 0 -92 0 *
Ed
 1e-07 1 1 0
1  18 0 0 100
4 C0 7 0 10 0
0

0101000
+115 0 -91 0 *
Wi

0101100
-82 0 +114 0 +81 0 -90 0 *
Fa
0  1e-07 7 0

0101000
+80 0 *
Ed
 1e-07 1 1 0
1  19 0 0 100
4 C0 9 0 8 0
0

0101000
+113 0 -89 0 *
Ed
 1e-07 1 1 0
1  20 0 0 100
4 C0 9 0 10 0
0

0101000
+111 0 -87 0 *
Wi

0101100
-78 0 +110 0 +77 0 -86 0 *
Fa
0  1e-07 9 0

0101000
+76 0 *
Wi

0101100
-112 0 +82 0 +88 0 -78 0 *
Fa
0  1e-07 8 0

0101000
+74 0 *
Wi

0101100
-109 0 +81 0 +85 0 -77 0 *
Fa
0  1e-07 10 0

0101000
+72 0 *
Sh

0101000
-107 0 +83 0 -79 0 +75 0 -73 0 +71 0 *
So

0100000
+70 0 *
Ve
1e-07
-80.000018 -40.000018 -40.000018
0 0

0101101
*
Ve
1e-07
-80.000018 -40.000018 140.000018
0 0

0101101
*
Ed
 1e-07 1 1 0
1  21 0 0 180.000036
4 C0 12 0 13 0
0

0101000
+68 0 -67 0 *
Ve
1e-07
-80.000018 140.000018 -40.000018
0 0

0101101
*
Ed
 1e-07 1 1 0
1  22 0 0 180.000036
4 C0 12 0 14 0
0

0101000
+68 0 -65 0 *
Ve
1e-07
-80.000018 140.000018 140.000018
0 0

0101101
*
Ed
 1e-07 1 1 0
1  23 0 0 180.000036
4 C0 12 0 15 0
0

0101000
+65 0 -63 0 *
Ed
 1e-07 1 1 0
1  24 0 0 180.000036
4 C0 12 0 16 0
0

0101000
+67 0 -63 0 *
Wi

0101100
-66 0 +64 0 +62 0 -61 0 *
Fa
0  1e-07 12 0

0101000
+60 0 *
Ve
1e-07
280.000018 -40.000018 -40.000018
0 0

0101101
*
Ed
 1e-07 1 1 0
1  25 0 0 360.000036
4 C0 13 0 14 0
0

0101000
+68 0 -58 0 *
Ve
1e-07
280.000018 -40.000018 140.000018
0 0

0101101
*
Ed
 1e-07 1 1 0
1  26 0 0 360.000036
4 C0 13 0 16 0
0

0101000
+67 0 -56 0 *
Ed
 1e-07 1 1 0
1  27 0 0 180.000036
4 C0 13 0 17 0
0

0101000
+58 0 -56 0 *
Wi

0101100
-57 0 +66 0 +55 0 -54 0 *
Fa
0  1e-07 13 0

0101000
+53 0 *
Ve
1e-07
280.000018 140.000018 140.000018
0 0

0101101
*
Ed
 1e-07 1 1 0
1  28 0 0 180.000036
4 C0 16 0 17 0
0

0101000
+56 0 -51 0 *
Ed
 1e-07 1 1 0
1  29 0 0 360.000036
4 C0 16 0 15 0
0

0101000
+63 0 -51 0 *
Wi

0101100
-61 0 +55 0 +50 0 -49 0 *
Fa
0  1e-07 16 0

0101000
+48 0 *
Ve
1e-07
280.000018 140.000018 -40.000018
0 0

0101101
*
Ed
 1e-07 1 1 0
1  30 0 0 360.000036
4 C0 15 0 14 0
0

0101000
+65 0 -46 0 *
Ed
 1e-07 1 1 0
1  31 0 0 180.000036
4 C0 15 0 17 0
0

0101000
+46 0 -51 0 *
Wi

0101100
-45 0 +62 0 +49 0 -44 0 *
Fa
0  1e-07 15 0

0101000
+43 0 *
Ed
 1e-07 1 1 0
1  32 0 0 180.000036
4 C0 14 0 17 0
0

0101000
+58 0 -46 0 *
Wi

0101100
-64 0 +57 0 +41 0 -45 0 *
Fa
0  1e-07 14 0

0101000
+40 0 *
Wi

0101100
-54 0 +41 0 +44 0 -50 0 *
Fa
0  1e-07 17 0

0101000
+38 0 *
Sh

0101100
-59 0 -52 0 +47 0 +42 0 -39 0 +37 0 *
Ve
1e-07
-40.000014 -20.000014 -20.000014
0 0

0101101
*
Ve
1e-07
-40.000014 -20.000014 120.000014
0 0

0101101
*
Ed
 1e-07 1 1 0
1  33 0 0 140.000028
4 C0 18 0 19 0
0

0101000
+35 0 -34 0 *
Ve
1e-07
-40.000014 120.000014 -20.000014
0 0

0101101
*
Ed
 1e-07 1 1 0
1  34 0 0 140.000028
4 C0 18 0 20 0
0

0101000
+35 0 -32 0 *
Ve
1e-07
-40.000014 120.000014 120.000014
0 0

0101101
*
Ed
 1e-07 1 1 0
1  35 0 0 140.000028
4 C0 18 0 21 0
0

0101000
+32 0 -30 0 *
Ed
 1e-07 1 1 0
1  36 0 0 140.000028
4 C0 18 0 22 0
0

0101000
+34 0 -30 0 *
Wi

0101100
-33 0 +31 0 +29 0 -28 0 *
Fa
0  1e-07 18 0

0101000
+27 0 *
Ve
1e-07
240.000014 -20.000014 -20.000014
0 0

0101101
*
Ed
 1e-07 1 1 0
1  37 0 0 280.000028
4 C0 19 0 20 0
0

0101000
+35 0 -25 0 *
Ve
1e-07
240.000014 -20.000014 120.000014
0 0

0101101
*
Ed
 1e-07 1 1 0
1  38 0 0 280.000028
4 C0 19 0 22 0
0

0101000
+34 0 -23 0 *
Ed
 1e-07 1 1 0
1  39 0 0 140.000028
4 C0 19 0 23 0
0

0101000
+25 0 -23 0 *
Wi

0101100
-24 0 +33 0 +22 0 -21 0 *
Fa
0  1e-07 19 0

0101000
+20 0 *
Ve
1e-07
240.000014 120.000014 120.000014
0 0

0101101
*
Ed
 1e-07 1 1 0
1  40 0 0 140.000028
4 C0 22 0 23 0
0

0101000
+23 0 -18 0 *
Ed
 1e-07 1 1 0
1  41 0 0 280.000028
4 C0 22 0 21 0
0

0101000
+30 0 -18 0 *
Wi

0101100
-28 0 +22 0 +17 0 -16 0 *
Fa
0  1e-07 22 0

0101000
+15 0 *
Ve
1e-07
240.000014 120.000014 -20.000014
0 0

0101101
*
Ed
 1e-07 1 1 0
1  42 0 0 280.000028
4 C0 21 0 20 0
0

0101000
+32 0 -13 0 *
Ed
 1e-07 1 1 0
1  43 0 0 140.000028
4 C0 21 0 23 0
0

0101000
+13 0 -18 0 *
Wi

0101100
-12 0 +29 0 +16 0 -11 0 *
Fa
0  1e-07 21 0

0101000
+10 0 *
Ed
 1e-07 1 1 0
1  44 0 0 140.000028
4 C0 20 0 23 0
0

0101000
+25 0 -13 0 *
Wi

0101100
-31 0 +24 0 +8 0 -12 0 *
Fa
0  1e-07 20 0

0101000
+7 0 *
Wi

0101100
-21 0 +8 0 +11 0 -17 0 *
Fa
0  1e-07 23 0

0101000
+5 0 *
Sh

0101100
-26 0 -19 0 +14 0 +9 0 -6 0 +4 0 *
So

0100000
+36 0 -3 0 *
Co

1100000
+93 0 +69 0 +2 0 *

+1 0 